<?xml version="1.0" standalone="no"?>
<!DOCTYPE svg PUBLIC "-//W3C//DTD SVG 1.1//EN" "http://www.w3.org/Graphics/SVG/1.1/DTD/svg11.dtd" >
<svg xmlns="http://www.w3.org/2000/svg">
<metadata></metadata>
<defs>
<font id="amazing_groteskultra" horiz-adv-x="616" >
<font-face units-per-em="2048" ascent="1638" descent="-410" />
<missing-glyph horiz-adv-x="500" />
<glyph horiz-adv-x="0" />
<glyph horiz-adv-x="682" />
<glyph unicode=" " />
<glyph unicode="!" horiz-adv-x="649" d="M74 180q0 55 19.5 94t53 62.5t77.5 35t95 11.5t95.5 -9t78 -33t53 -62.5t19.5 -98.5q0 -59 -19.5 -98t-53 -62.5t-77.5 -34t-96 -10.5q-51 0 -95 9.5t-77.5 32t-53 62.5t-19.5 101zM92 479v1108h371v-835h90v-273h-461z" />
<glyph unicode="&#x22;" horiz-adv-x="831" d="M92 1505h264v-358h-223zM455 1147v358h266l-41 -358h-225z" />
<glyph unicode="#" horiz-adv-x="1599" d="M78 406v188h309l92 297h-258v188h318l118 375h240l-117 -375h240l117 375h241l-118 -375h276v-188h-336l-94 -297h280v-188h-337l-129 -406h-238l125 406h-240l-127 -406h-239l127 406h-250zM627 594h241l90 297h-239z" />
<glyph unicode="$" horiz-adv-x="1361" d="M147 49l43 357h256v-87q0 -8 19.5 -13t66.5 -5q37 0 81 5t82 17.5t63.5 35t25.5 57.5q0 49 -14 75.5t-44 45t-78 35t-116 44.5q-180 53 -280 167t-100 292q0 35 3 71t13 75q23 98 101.5 153.5t189.5 79.5v197h370v-178q86 -6 168 -16.5t166 -24.5l-57 -342l-229 14 l-15 72q-18 10 -43.5 12t-56.5 2q-41 0 -80 -5t-68.5 -17.5t-48 -35t-18.5 -57.5q0 -51 65.5 -102t206.5 -70q70 -10 138.5 -36.5t126 -79t95.5 -135.5t44 -203v-23q0 -86 -33 -155.5t-88 -123t-127 -89t-150 -56.5h4v-201h-370v185q-104 8 -179 24.5t-133 38.5z" />
<glyph unicode="%" horiz-adv-x="1556" d="M100 1071v152q0 90 28 140t70 74.5t89 30t88 5.5h8q39 0 86 -8.5t87 -36t66.5 -81t26.5 -143.5v-149q-4 -88 -29.5 -138.5t-64.5 -76t-84 -31.5t-86 -6h-16q-39 0 -85 8t-87 35.5t-69 81t-28 143.5zM152 -2l892 1458h347l-902 -1458h-337zM326 1108q0 -49 4 -72.5t12 -32 t18.5 -7.5t20.5 1q18 0 25.5 15.5t7.5 87.5v71q0 43 -3 66t-8.5 33t-12.5 12t-15 2q-10 0 -19.5 -2t-15.5 -11t-10 -30.5t-4 -60.5v-72zM899 256v152q0 90 27.5 140t69.5 74.5t89.5 29.5t88.5 5h8q39 0 86 -8t87 -35.5t66.5 -81t26.5 -143.5v-149q-4 -88 -29.5 -138.5 t-64.5 -76t-84 -31.5t-86 -6h-17q-39 0 -85 8t-87 35.5t-68.5 81t-27.5 143.5zM1128 295q0 -49 4.5 -72.5t12.5 -32t18.5 -7.5t20.5 1q18 0 25.5 15.5t7.5 87.5v71q0 43 -3.5 65.5t-8.5 33t-12 12.5t-15 2q-10 0 -19.5 -2t-15.5 -11t-10.5 -30.5t-4.5 -60.5v-72z" />
<glyph unicode="&#x26;" horiz-adv-x="1728" d="M70 426q0 76 20.5 135.5t54 105.5t78.5 80.5t94 59.5q-35 20 -70.5 37.5t-64 42t-46 63.5t-17.5 103q0 129 44 212t113.5 130t154.5 65.5t169 18.5q106 0 187 -20.5t151 -37.5l231 -57l-98 -348l-233 61q10 41 10 51q0 29 -20.5 44.5t-49 22.5t-58.5 8t-48 1 q-86 0 -131 -28.5t-45 -120.5q0 -45 16 -77t43 -51.5t59.5 -28.5t65.5 -9h149l-77 -250h-78q-92 0 -152.5 -48t-60.5 -147q0 -66 22.5 -104.5t57 -58t73.5 -24.5t74 -5h23q63 0 115.5 5t97.5 14.5t86 21.5t84 26l-13 179h-196l94 313h301q109 0 181.5 -16.5t119.5 -39 t71.5 -49t35.5 -44.5l-68 -193q-31 2 -55.5 6t-48 7t-48 7.5t-57.5 6.5q4 -190 17.5 -285.5t31 -135.5t33.5 -46t25 -19l-240 -145q-51 16 -95 66.5t-67 142.5q-98 -41 -197.5 -69t-209.5 -28q-133 0 -250 26t-203 81t-136 140t-50 202z" />
<glyph unicode="'" horiz-adv-x="475" d="M84 1450h307l-39 -358h-225z" />
<glyph unicode="(" horiz-adv-x="722" d="M113 723q0 279 27.5 470t78.5 321.5t124 214t161 145.5l190 -164q-41 -45 -74.5 -145.5t-58 -233.5t-39 -288.5t-14.5 -309.5v-24q0 -154 14.5 -311.5t39 -293t58 -238t74.5 -147.5l-190 -163q-90 61 -162 144t-123 216t-78.5 327.5t-27.5 479.5z" />
<glyph unicode=")" horiz-adv-x="679" d="M31 -281q39 45 72.5 147.5t59 238t40 292t14.5 312.5v24q0 156 -14.5 310.5t-39 287.5t-59 232.5t-73.5 146.5l190 164q88 -61 161 -145t124 -214.5t78.5 -322t27.5 -469.5q0 -285 -27.5 -480.5t-78.5 -327.5t-124 -215t-161 -144z" />
<glyph unicode="*" horiz-adv-x="1079" d="M109 692l129 213l161 -102v190h273v-192l180 114l129 -210l-193 -119l189 -117l-133 -213l-172 106v-198h-273v194l-157 -100l-131 217l188 105z" />
<glyph unicode="+" horiz-adv-x="1097" d="M109 442v279h270v231l299 82v-313h297v-279h-297v-254l-299 -82v336h-270z" />
<glyph unicode="," d="M53 180q0 55 19.5 94t53.5 62.5t78 35t95 11.5t95 -9t78 -33t53.5 -62.5t19.5 -98.5v-160q0 -70 -25.5 -124t-64.5 -95t-84 -68.5t-84 -43.5l-70 121q18 23 38.5 63.5t20.5 101.5q-47 2 -88 12.5t-70.5 34t-47 61.5t-17.5 97z" />
<glyph unicode="-" horiz-adv-x="985" d="M156 444v279h688v-279h-688z" />
<glyph unicode="." d="M53 180q0 55 19.5 94t53.5 62.5t78 35t95 11.5t95 -9t78 -33t53.5 -62.5t19.5 -98.5q0 -59 -19.5 -98t-53.5 -62.5t-78 -34t-95 -10.5t-95 9.5t-78 32t-53.5 62.5t-19.5 101z" />
<glyph unicode="/" horiz-adv-x="1048" d="M88 -264l557 1845h387l-565 -1845h-379z" />
<glyph unicode="0" horiz-adv-x="1339" d="M68 582v331q0 129 28.5 221.5t76.5 155t111.5 99t132 56t139.5 25t134 5.5t135 -5.5t140.5 -25t132 -56t110.5 -99t76 -155t29 -221.5v-331q0 -197 -52.5 -316t-138.5 -183.5t-198.5 -85t-233.5 -20.5t-233.5 21.5t-198.5 86.5t-138 183.5t-52 313.5zM475 643 q0 -104 9.5 -178t33 -120t65.5 -66.5t107 -20.5q63 0 105.5 20.5t67 66.5t33.5 120t9 178v156q0 98 -9 173t-32.5 124t-65.5 74.5t-108 25.5t-107.5 -25.5t-65 -74.5t-33 -124t-9.5 -173v-156z" />
<glyph unicode="1" horiz-adv-x="874" d="M86 1182v272h541v-272v-910h88v-272h-576v272h92v879q-8 18 -25.5 24.5t-58.5 6.5h-61z" />
<glyph unicode="2" horiz-adv-x="1402" d="M145 1307q63 27 133 55.5t139.5 50t137.5 35.5t127 14q80 0 178 -7t185.5 -43t145.5 -107.5t58 -200.5v-70q0 -49 -24.5 -106.5t-65.5 -93.5l-596 -539h438q23 8 30 24.5t7 61.5h240v-381h-1116v295l565 545q55 47 95 108.5t40 112.5q0 45 -41 84t-127 39q-27 0 -62.5 -3 t-67.5 -9.5t-53.5 -16.5t-21.5 -27q0 -20 19 -59l-223 -94z" />
<glyph unicode="3" horiz-adv-x="1302" d="M98 102l95 228q49 -16 87.5 -30.5t78.5 -25t88.5 -16.5t117.5 -6q37 0 80 5t81 24.5t63.5 58.5t25.5 104q0 25 -6 59t-27.5 63.5t-62.5 51t-111 21.5h-84l-59 250h131q31 2 59.5 8t52 21.5t38 43t14.5 72.5q0 94 -41 124t-127 30q-86 -2 -130 -9.5t-44 -45.5 q0 -20 10 -52l-233 -61l-91 348l224 59q55 16 124.5 26.5t135.5 10.5q80 0 177 -8t182 -43t142.5 -107.5t57.5 -201.5v-84q0 -68 -46 -121t-118 -96q98 -49 160.5 -129t62.5 -203v-86q0 -98 -50 -174t-136 -128t-203 -79t-250 -27q-129 0 -243.5 37t-225.5 88z" />
<glyph unicode="4" horiz-adv-x="1431" d="M121 225v275l633 954h422l-635 -954h352v30q0 106 -12.5 160.5t-26.5 73.5l233 76q27 -10 58 -33t56.5 -62.5t43 -99t19.5 -145.5h153v-275h-153v-309l-371 84v225h-772z" />
<glyph unicode="5" horiz-adv-x="1267" d="M57 102l95 228q49 -16 88 -30.5t78.5 -25t88 -16.5t117.5 -6h23q33 0 72.5 5t74.5 24.5t57.5 58.5t22.5 104q0 25 -7 59t-28.5 64.5t-62.5 51t-109 20.5q-2 -2 -6 -2h-430v817h989v-360h-239q0 47 -8.5 63.5t-34.5 24.5h-398v-293h146q115 0 219 -22.5t184 -73t128 -130 t48 -192.5v-86q0 -98 -50 -174t-136 -128t-203 -79t-250 -27q-129 0 -243.5 37t-225.5 88z" />
<glyph unicode="6" horiz-adv-x="1402" d="M100 553v356q0 152 38 258.5t115 173t190.5 97t265.5 30.5q86 0 154.5 -7t127 -21.5t110.5 -32.5t105 -43l-94 -240q-61 16 -111.5 28.5t-99.5 21t-102 12.5t-121 4q-72 0 -111 -43t-57 -100.5t-21.5 -112.5t-3.5 -80q37 18 98.5 39.5t127.5 21.5q117 0 224 -13t191 -59 t134.5 -133t50.5 -235q0 -135 -46 -229t-127 -154.5t-190.5 -88.5t-236.5 -28q-154 0 -268.5 31t-190.5 98.5t-114 178t-38 270.5zM487 545q0 -76 9.5 -129.5t34 -88t67.5 -51t109 -16.5q35 0 72.5 12.5t70.5 38t53.5 66.5t20.5 98q0 55 -17.5 91t-47.5 57.5t-70.5 31 t-86.5 9.5q-53 0 -110 -12.5t-105 -22.5v-84z" />
<glyph unicode="7" horiz-adv-x="1286" d="M76 1094v360h1177v-274l-591 -1180h-381l591 1180h-522q-23 -8 -29 -25.5t-6 -60.5h-239z" />
<glyph unicode="8" horiz-adv-x="1370" d="M86 385v127q0 98 14.5 150.5t41 82t66.5 46t91 40.5q-37 23 -68.5 41.5t-55 40t-37 47t-13.5 60.5v104q0 86 26.5 144.5t69.5 96.5t99.5 57.5t118 28.5t122 10t113.5 1q78 0 175 -4t183 -35.5t144.5 -100.5t58.5 -198v-104q0 -35 -12.5 -60.5t-36 -47t-54 -41 t-67.5 -42.5q51 -25 91 -40t66.5 -42.5t41 -81t14.5 -153.5v-127q0 -98 -44 -174t-124 -128t-191.5 -79t-244.5 -27q-133 2 -240.5 30t-185.5 80t-120 127t-42 171zM477 444q0 -66 19.5 -103.5t48 -58t64.5 -25.5t71 -5q33 0 69.5 5t67.5 24.5t50.5 58t19.5 104.5 q0 25 -3 59t-19.5 63.5t-52.5 51t-101 21.5h-60q-63 0 -98 -21.5t-52.5 -51t-20.5 -63.5t-3 -59zM514 1040q0 -45 11.5 -72.5t32 -44t47 -22.5t57.5 -6h38q31 0 57.5 6t47 22.5t32 44t11.5 72.5q0 94 -43 122t-129 28t-124 -28t-38 -122z" />
<glyph unicode="9" horiz-adv-x="1349" d="M70 981q0 119 41 210t115.5 152.5t179 93t231.5 31.5q154 0 268.5 -30.5t190 -98t113.5 -178t38 -270.5v-356q0 -152 -46 -258.5t-129 -173t-198.5 -97.5t-255.5 -31q-86 0 -154.5 7.5t-126.5 21.5t-110.5 32.5t-105.5 43.5l94 239q61 -16 111.5 -28t99.5 -20.5 t102 -12.5t121 -4q82 0 126 37t63.5 86t21.5 98t2 74q-37 -18 -98.5 -40t-126.5 -22q-117 0 -219.5 21.5t-180 78t-122.5 152t-45 242.5zM444 979q0 -111 54.5 -165t146.5 -54q53 0 110.5 12t104.5 23v166q0 61 -22.5 105t-55 72.5t-70.5 42t-71 13.5q-35 0 -69.5 -12.5 t-63.5 -39t-46.5 -66.5t-17.5 -97z" />
<glyph unicode=":" d="M53 180q0 55 19.5 94t53.5 62.5t78 35t95 11.5t95 -9t78 -33t53.5 -62.5t19.5 -98.5q0 -59 -19.5 -98t-53.5 -62.5t-78 -34t-95 -10.5t-95 9.5t-78 32t-53.5 62.5t-19.5 101zM53 907q0 55 19.5 94t53.5 62.5t78 35t95 11.5t95 -9t78 -33t53.5 -62.5t19.5 -98.5 q0 -59 -19.5 -98t-53.5 -62.5t-78 -34t-95 -10.5t-95 9.5t-78 32t-53.5 62.5t-19.5 101z" />
<glyph unicode=";" d="M53 180q0 55 19.5 94t53.5 62.5t78 35t95 11.5t95 -9t78 -33t53.5 -62.5t19.5 -98.5v-160q0 -70 -25.5 -124t-64.5 -95t-84 -68.5t-84 -43.5l-70 121q18 23 38.5 63.5t20.5 101.5q-47 2 -88 12.5t-70.5 34t-47 61.5t-17.5 97zM53 907q0 55 19.5 94t53.5 62.5t78 35 t95 11.5t95 -9t78 -33t53.5 -62.5t19.5 -98.5q0 -59 -19.5 -98t-53.5 -62.5t-78 -34t-95 -10.5t-95 9.5t-78 32t-53.5 62.5t-19.5 101z" />
<glyph unicode="&#x3c;" horiz-adv-x="1040" d="M117 428v320l786 397v-320l-483 -243l483 -265v-319z" />
<glyph unicode="=" horiz-adv-x="1153" d="M150 203v278h868v-278h-868zM150 694v279h868v-279h-868z" />
<glyph unicode="&#x3e;" horiz-adv-x="1028" d="M117 -2v319l483 265l-483 243v320l786 -397v-320z" />
<glyph unicode="?" horiz-adv-x="1206" d="M59 1350l146 53q35 18 70.5 33.5t77.5 27t93.5 18.5t114.5 7q80 0 174 -17.5t175 -63.5t135.5 -127t54.5 -210v-8q0 -25 -5 -58.5t-18.5 -69.5t-35 -68.5t-52.5 -53.5q-55 -37 -102 -67.5t-82 -61.5t-54.5 -66.5t-19.5 -85.5v-63h-371v147q0 72 8.5 113t43.5 76 q68 68 121 107.5t89.5 67.5t56 53.5t19.5 64.5q0 45 -29.5 69.5t-115.5 24.5q-37 -4 -66.5 -10t-54.5 -13l2 -4q-33 -6 -33 -24t23 -68l-229 -78zM303 180q0 55 19.5 94t53.5 62.5t78 35t95 11.5t95 -9t78 -33t53.5 -62.5t19.5 -98.5q0 -59 -19.5 -98t-53.5 -62.5t-78 -34 t-95 -10.5t-95 9.5t-78 32t-53.5 62.5t-19.5 101z" />
<glyph unicode="@" horiz-adv-x="1710" d="M66 590q0 160 60 301t165.5 246.5t247 167t301.5 61.5t300 -61.5t242.5 -167t162 -246.5t59.5 -301q0 -152 -42 -237t-106.5 -126t-142.5 -51t-152 -10q-59 0 -88 20.5t-43 28.5q-29 -8 -49 -15t-45 -11.5t-56.5 -7.5t-82.5 -3q-45 0 -100.5 10.5t-102.5 40t-80 86 t-33 148.5q0 78 36 127t90.5 75.5t117.5 36t119 9.5q25 0 45 -1t41 -3q0 53 -19.5 70.5t-85.5 17.5q-35 0 -74.5 -6.5t-74.5 -10.5l-78 -12l-49 168q37 23 122 46.5t226 23.5q102 0 159.5 -40t85 -94.5t33 -106.5t5.5 -77v-92q0 -53 -1 -89t-1 -59q0 -25 3 -38t12 -20 t25.5 -11t45.5 -10q14 2 31.5 9t32.5 22.5t24.5 42t9.5 67.5l2 80q0 115 -39 216t-108.5 177t-166 120t-210.5 44q-115 0 -213.5 -44t-170 -120t-111.5 -177.5t-40 -215.5q0 -115 40 -216.5t111.5 -177t170 -118.5t213.5 -43q63 0 123.5 14t113.5 39l199 -137 q-94 -63 -203.5 -98t-232.5 -35q-160 0 -301.5 60.5t-247 165.5t-165.5 246.5t-60 301.5zM723 434q0 -49 36 -65.5t75 -16.5q8 0 23 1t31.5 2t31 3t18.5 4h12l-6 162q-10 2 -27.5 5t-35.5 3t-46 -4t-52.5 -14t-42 -29.5t-17.5 -50.5z" />
<glyph unicode="A" horiz-adv-x="1447" d="M41 0v272h94l381 1182h428l369 -1182h94v-272h-395l-92 272h-396l-90 -272h-393zM610 555h234l-109 401z" />
<glyph unicode="B" horiz-adv-x="1400" d="M78 1182v272h563q94 0 201.5 -6t197.5 -40t149.5 -104.5t59.5 -199.5v-125q0 -70 -34.5 -119t-92.5 -86q86 -45 136.5 -118.5t50.5 -184.5v-147q0 -109 -62.5 -172.5t-156 -97.5t-201 -44t-197.5 -10h-522v1182h-92zM563 272h139q33 0 71 3.5t71 19.5t53.5 51t20.5 98 q0 25 -7.5 59t-29 63.5t-62.5 50t-108 20.5h-148v-365zM563 889h113q33 0 65.5 4t59 19.5t44 44t17.5 77.5q0 94 -41 122t-127 28h-131v-295z" />
<glyph unicode="C" horiz-adv-x="1275" d="M94 582v331q0 127 28 218.5t75 154t108.5 100t130 57t137 26t132.5 6.5q135 0 263 -17.5t218 -46.5l-27 -375h-227l-10 78q-23 31 -67 56.5t-132 25.5q-66 0 -108 -24.5t-65.5 -73.5t-32.5 -124t-9 -175v-156q0 -109 10 -182.5t37 -118.5t72 -64.5t116 -19.5q70 0 118 5 t89 14.5t79 22.5t87 30l94 -228q-111 -51 -225.5 -88t-243.5 -37q-123 0 -239.5 18.5t-207.5 82t-145.5 182.5t-54.5 322z" />
<glyph unicode="D" horiz-adv-x="1392" d="M78 1182v272h637q61 0 129.5 -3t135.5 -20.5t127 -53.5t106.5 -100.5t73 -163.5t26.5 -243v-311q0 -131 -28 -223t-76 -154.5t-109.5 -98.5t-128 -54.5t-135 -23.5t-127.5 -5h-539v1182h-92zM543 272h159q33 0 72 10.5t73 47.5t55.5 108.5t21.5 192.5v186 q0 121 -17.5 192.5t-44 110.5t-60.5 50.5t-65 11.5h-194v-910z" />
<glyph unicode="E" horiz-adv-x="1243" d="M78 1182v272h1052v-272h-567v-312h385v-278h-385v-320h567v-272h-958v1182h-94z" />
<glyph unicode="F" horiz-adv-x="1159" d="M78 0v272h92v910h-92v272h1052v-272h-567v-312h385v-278h-385v-320h131v-272h-616z" />
<glyph unicode="G" horiz-adv-x="1327" d="M70 582v331q0 127 27.5 218.5t74.5 154t108.5 100t130 57t137 26t132.5 6.5q135 0 263 -17.5t218 -46.5l-26 -375h-228l-10 78q-23 31 -67 56.5t-132 25.5q-66 0 -107.5 -24.5t-65 -73.5t-33 -124t-9.5 -175v-156q0 -109 10.5 -182.5t37 -118.5t71.5 -64.5t117 -19.5 q76 0 135 6q-2 16 -2 31.5v32.5v125h-90v272h461v-440q0 -111 11 -163t28 -71l-234 -76q-37 14 -65 39q-59 -16 -120 -26.5t-126 -10.5q-127 0 -244 18.5t-206 82t-143 182.5t-54 322z" />
<glyph unicode="H" horiz-adv-x="1478" d="M78 0v272h92v910h-92v272h575v-272h-90v-312h367v312h-92v272h575v-272h-90v-910h90v-272h-575v272h92v320h-367v-320h90v-272h-575z" />
<glyph unicode="I" horiz-adv-x="706" d="M78 0v272h92v910h-92v272h575v-272h-90v-910h90v-272h-575z" />
<glyph unicode="J" horiz-adv-x="675" d="M80 1182v272h481v-1585q0 -92 -18.5 -155.5t-45 -104.5t-57 -62.5t-55.5 -29.5l-254 75q10 18 24.5 72.5t14.5 161.5v1356h-90z" />
<glyph unicode="K" horiz-adv-x="1488" d="M78 1182v272h483v-502l514 502h330v-272h-8q-25 -4 -65 -16.5t-83 -51.5l-16 -18l-375 -363l412 -371q80 -72 125 -99t69 -32l-102 -225q-35 -14 -61.5 -16t-45.5 -2q-53 0 -118.5 24.5t-155.5 108.5l-383 360l-35 -35v-446h-393v1182h-92z" />
<glyph unicode="L" horiz-adv-x="1196" d="M78 1182v272h465v-1161h321q27 8 35 24.5t8 63.5h240v-381h-977v1182h-92z" />
<glyph unicode="M" horiz-adv-x="1871" d="M80 1184v272h596l264 -694l293 694h582v-272h-91v-1184h-370v965l-244 -637h-334l-235 639v-967h-371v1184h-90z" />
<glyph unicode="N" horiz-adv-x="1572" d="M78 1182v272h485l486 -874v602h-93v272h576v-272h-90v-910h90v-272h-481l-488 879v-879h-393v1182h-92z" />
<glyph unicode="O" horiz-adv-x="1368" d="M68 582v331q0 129 28.5 221.5t76.5 155t111.5 99t132 56t139.5 25t134 5.5t135 -5.5t140.5 -25t132 -56t110.5 -99t76 -155t29 -221.5v-331q0 -197 -52.5 -316t-138.5 -183.5t-198.5 -85t-233.5 -20.5t-233.5 21.5t-198.5 86.5t-138 183.5t-52 313.5zM475 643 q0 -104 9.5 -178t33 -120t65.5 -66.5t107 -20.5q63 0 105.5 20.5t67 66.5t33.5 120t9 178v156q0 98 -9 173t-32.5 124t-65.5 74.5t-108 25.5t-107.5 -25.5t-65 -74.5t-33 -124t-9.5 -173v-156z" />
<glyph unicode="P" horiz-adv-x="1347" d="M78 1182v272h608q94 0 201.5 -12t198 -54t149.5 -119t59 -206v-125q0 -115 -57 -187.5t-144 -113.5t-189.5 -55.5t-192.5 -14.5h-148v-567h-393v1182h-92zM563 817h150q33 0 67.5 9.5t62 31t46 55t18.5 82.5q0 94 -51 140.5t-137 46.5h-156v-365z" />
<glyph unicode="Q" horiz-adv-x="1339" d="M68 582v331q0 129 28.5 221.5t76.5 155t111.5 99t132 56t139.5 25t134 5.5t135 -5.5t140.5 -25t132 -56t110.5 -99t76 -155t29 -221.5v-331q0 -160 -35 -267.5t-95.5 -176t-142.5 -103.5t-174 -47v-240l-370 82v162q-90 14 -168 50t-136.5 103.5t-91 174t-32.5 262.5z M475 643q0 -104 9.5 -178t33 -120t65.5 -66.5t107 -20.5q63 0 105.5 20.5t67 66.5t33.5 120t9 178v156q0 98 -9 173t-32.5 124t-65.5 74.5t-108 25.5t-107.5 -25.5t-65 -74.5t-33 -124t-9.5 -173v-156z" />
<glyph unicode="R" horiz-adv-x="1413" d="M53 1182v272h629q94 0 201.5 -12t197.5 -54t149.5 -119t59.5 -206v-166q0 -72 -22.5 -126t-62.5 -94t-92 -67.5t-109 -46.5l174 -227q66 -86 113.5 -116t76.5 -38l-141 -200q-23 -8 -56 -9q-25 0 -57.5 5.5t-71 25t-81.5 56t-89 100.5l-268 368h-86v-528h-373v1182h-92z M518 776h191q33 0 67.5 12.5t62 37t46 61.5t18.5 86q0 94 -51 151.5t-137 57.5h-197v-406z" />
<glyph unicode="S" horiz-adv-x="1325" d="M147 49l43 357h256v-87q0 -8 19.5 -13t66.5 -5q37 0 81 5t82 17.5t63.5 35t25.5 57.5q0 49 -14 75.5t-44 45t-78 35t-116 44.5q-180 53 -280 167t-100 292q0 115 38.5 191.5t110.5 124t173 67t224 19.5q119 0 234 -12.5t231 -32.5l-57 -342l-229 14l-15 72 q-18 10 -43.5 12t-56.5 2q-41 0 -80 -5t-68.5 -17.5t-48 -35t-18.5 -57.5q0 -51 65.5 -96t206.5 -76q68 -14 138.5 -45t130 -85t97.5 -138t38 -205q0 -115 -54.5 -200t-139.5 -141t-190.5 -84t-205.5 -28q-174 0 -291 21.5t-195 50.5z" />
<glyph unicode="T" horiz-adv-x="1386" d="M61 1094v360h1278v-360h-231v36q0 23 -7 34.5t-22 17.5h-192v-910h90v-272h-555v272h92v910h-195q-27 -8 -26 -52v-36h-232z" />
<glyph unicode="U" horiz-adv-x="1421" d="M96 537v919h389v-838q0 -125 21.5 -196.5t54.5 -107t72 -45t74 -9.5t73.5 9.5t71.5 45t54.5 107.5t21.5 194v840h389v-919q0 -129 -30 -220.5t-79 -154t-113.5 -99t-132 -55t-135 -25t-122.5 -6.5t-122 6.5t-134.5 25t-131 55t-112.5 99t-79 154t-30 220.5z" />
<glyph unicode="V" horiz-adv-x="1425" d="M27 1182v272h413l265 -958l292 958h396v-272h-97l-381 -1182h-415l-367 1182h-106z" />
<glyph unicode="W" horiz-adv-x="2222" d="M47 1182v272h414l264 -958l199 649l-97 309h392l264 -958l293 958h395v-272h-96l-381 -1182h-416l-168 543l-174 -543h-416l-366 1182h-107z" />
<glyph unicode="X" horiz-adv-x="1421" d="M76 2v272q29 0 46 2.5t28.5 7.5t21.5 13t23 22l303 406l-336 457h-86v272h330l315 -426l317 426h330v-272q-47 0 -71.5 -7.5t-45.5 -35.5l-305 -414l336 -451h86v-272h-336l-311 420l-309 -420h-336z" />
<glyph unicode="Y" horiz-adv-x="1433" d="M27 1182v272h413l265 -448l292 448h396v-272h-174l-314 -518v-392h92v-272h-575v272h92v387l-305 523h-182z" />
<glyph unicode="Z" horiz-adv-x="1458" d="M80 0v295l776 885h-461q-23 -8 -29 -25.5t-6 -60.5h-239v360h1259v-274l-776 -885h500q23 8 30 24.5t7 61.5h239v-381h-1300z" />
<glyph unicode="[" horiz-adv-x="858" d="M174 -406v2255h606v-272h-235v-1710h235v-273h-606z" />
<glyph unicode="\" horiz-adv-x="1054" d="M94 1456h387l461 -1456h-379z" />
<glyph unicode="]" horiz-adv-x="837" d="M70 -133h235v1710h-235v272h606v-2255h-606v273z" />
<glyph unicode="^" horiz-adv-x="1069" d="M45 844l315 645h353l317 -645h-350l-143 387l-146 -387h-346z" />
<glyph unicode="_" horiz-adv-x="1230" d="M20 -156h1188v-278h-1188v278z" />
<glyph unicode="`" horiz-adv-x="636" d="M139 1458h348l119 -258h-289z" />
<glyph unicode="a" horiz-adv-x="1200" d="M51 383q0 113 47 183.5t119 109.5t159 52t165 13q70 0 123 -6q0 33 -5.5 57.5t-20.5 39t-45 21.5t-79 7q-51 0 -108.5 -6t-104.5 -14l-113 -19l-71 242q59 31 180 65.5t321 34.5q98 0 167 -27.5t114 -70.5t69.5 -95t37 -103.5t15.5 -94.5t3 -67v-130v-93t2 -95t5 -78 t9 -41q6 -10 18.5 -15t24.5 -5q23 0 41 6l21 8l14 -231q-27 -16 -61.5 -28.5t-75.5 -12.5q-86 0 -134 10t-81 31q-43 -14 -80 -24.5t-74 -16.5t-80 -9.5t-98 -3.5q-66 0 -140.5 14.5t-137 57.5t-104.5 123t-42 211zM408 379q0 -35 14 -57.5t36.5 -36t50.5 -18.5t54 -5 q29 0 58.5 6t52.5 6v234q-23 2 -47.5 5t-51.5 3q-29 0 -58.5 -5t-54 -20.5t-39.5 -42t-15 -69.5z" />
<glyph unicode="b" horiz-adv-x="1269" d="M84 1305v272h461v-459q4 4 24.5 9.5t51 10.5t68.5 8t75 3q72 0 149.5 -19.5t142 -72.5t106.5 -146.5t42 -240.5v-201q0 -158 -44 -255t-110.5 -150.5t-145.5 -71t-150 -17.5q-72 0 -149 11.5t-138 29.5q-18 -23 -46 -41t-52 -28l-234 76q10 18 24.5 72.5t14.5 160.5v1049 h-90zM545 301q23 -16 60.5 -29.5t84.5 -13.5q43 0 73 11.5t46 45t23.5 94t7.5 158.5q0 96 -10.5 153.5t-31 87.5t-51 39t-73.5 9q-70 0 -129 -20v-535z" />
<glyph unicode="c" horiz-adv-x="1052" d="M49 432v264q0 150 50.5 239t125 136t162.5 61.5t164 14.5q104 0 167.5 -3t107.5 -9.5t79 -12.5t80 -12l-33 -367h-227l-10 78q-14 23 -63.5 29t-98.5 6q-23 0 -46.5 -7t-44 -31.5t-33.5 -72t-13 -127.5v-120q0 -84 14 -130t35.5 -67.5t46.5 -26t43 -4.5q113 0 199 11.5 t172 35.5l73 -260q-45 -25 -104 -40t-120.5 -22t-120 -10t-99.5 -3q-86 0 -176 11t-164 57t-120 135t-46 247z" />
<glyph unicode="d" horiz-adv-x="1267" d="M68 469v209q0 147 42 239.5t106.5 143.5t142 69.5t149.5 18.5q37 0 75 -3t68.5 -8t51 -10.5t24.5 -9.5v187h-88v272h459v-1217q0 -45 13 -75.5t63 -30.5q12 0 25 1t18 5l12 -219l-47 -21q-43 -20 -99 -20q-72 0 -118.5 9t-94.5 40l-34 -18q-57 -29 -147.5 -42.5 t-174.5 -13.5q-72 0 -150.5 17.5t-144 71t-108.5 150.5t-43 255zM432 567q0 -98 6 -158.5t23.5 -94t46.5 -45t74 -11.5q47 0 83.5 13.5t61.5 29.5v535l-39 10q-45 10 -90 10q-43 0 -73.5 -9t-51 -39t-31 -87t-10.5 -154z" />
<glyph unicode="e" horiz-adv-x="1144" d="M61 444v261q0 156 58.5 244.5t143.5 132.5t181.5 54.5t171.5 10.5q49 0 103.5 -4t107 -20.5t100.5 -47.5t85 -84t58.5 -131t21.5 -186q0 -59 -4.5 -114.5t-14.5 -108.5h-661q8 -61 35.5 -99.5t62.5 -58t70.5 -26t58.5 -7.5q119 0 196.5 6t149.5 10l88 -223 q-45 -25 -99 -40t-109.5 -22t-107.5 -10.5t-93 -3.5q-55 0 -122 5.5t-133.5 23t-129 49t-111.5 83.5t-78 127t-29 179zM408 670h305q18 6 23 20.5t5 48.5q-10 86 -47.5 120t-103.5 34q-35 0 -66.5 -8t-56.5 -32t-40 -68t-19 -115z" />
<glyph unicode="f" horiz-adv-x="784" d="M68 850v278h84v56q0 92 15 165.5t54 126t107.5 80t173.5 27.5h278v-274h-98q-43 0 -72.5 -7.5t-48 -27t-28 -54t-11.5 -92.5h172v-278h-172v-930l-370 82v848h-84z" />
<glyph unicode="g" horiz-adv-x="1241" d="M51 449v208q0 158 43 255.5t108.5 150.5t144.5 70.5t151 17.5q98 0 192 -17.5t164 -56.5q47 31 94 40t119 9q37 0 75 -12t70 -29l-12 -219q-4 0 -18.5 3t-24.5 3q-49 0 -62.5 -30.5t-13.5 -75.5v-690q0 -166 -50 -266.5t-123.5 -154.5t-156.5 -71.5t-149 -17.5 q-147 0 -259 20.5t-204 67.5l80 254q51 -16 92 -25.5t78 -14.5t73 -7t77 -2q53 0 85.5 15t51 39t26 49.5t9.5 45.5q-4 -4 -24.5 -10t-51.5 -10t-69 -7.5t-74 -3.5q-72 0 -150 18.5t-142.5 70t-106.5 143.5t-42 240zM416 559q0 -96 10 -153.5t30.5 -87t51.5 -39t74 -9.5 q37 0 71.5 5.5t57.5 15.5v534q-25 14 -62 28.5t-84 14.5q-45 0 -73.5 -11t-46 -45t-23.5 -94.5t-6 -158.5z" />
<glyph unicode="h" horiz-adv-x="1275" d="M33 1305v272h461v-444q41 10 85 14t97 4q150 0 237.5 -55.5t134 -129t59.5 -146t13 -109.5v-129v-93.5t2 -95.5t5 -77.5t10 -41.5q6 -10 18 -15t25 -5q23 0 41 6l20 8l14 -231q-27 -16 -61.5 -28.5t-75.5 -12.5q-92 0 -158.5 9t-108.5 42t-61.5 96.5t-19.5 169.5v201 q0 113 -6 182.5t-23.5 106.5t-46 50t-73.5 13q-23 0 -45.5 -6t-40.5 -14l-41 -19v-827h-371v1305h-90z" />
<glyph unicode="i" horiz-adv-x="643" d="M63 856v272h461v-1128h-370v856h-91zM80 1403q0 100 64.5 142t156.5 42q45 0 86 -8t70.5 -29.5t47 -57.5t17.5 -89t-17.5 -89t-47 -57.5t-70.5 -30.5t-86 -9q-47 0 -87 8t-69.5 28.5t-47 57.5t-17.5 92z" />
<glyph unicode="j" horiz-adv-x="614" d="M70 856v272h460v-1278q0 -92 -18 -155.5t-45 -104.5t-57.5 -62.5t-55.5 -29.5l-233 76q10 18 24.5 72.5t14.5 160.5v1049h-90zM86 1403q0 100 64.5 142t156.5 42q45 0 86 -8t71 -29.5t47 -57.5t17 -89t-17 -89t-47 -57.5t-71 -30.5t-86 -9q-47 0 -87 8t-69.5 28.5 t-47 57.5t-17.5 92z" />
<glyph unicode="k" horiz-adv-x="1462" d="M84 1305v272h461v-887l377 438h329v-272h-26q-18 -2 -42 -11t-57 -38l-194 -244l264 -223q86 -72 132 -95.5t69 -27.5l-94 -227q-47 -25 -107 -25q-51 0 -121.5 23.5t-156.5 99.5l-373 330v-119q0 -92 -18.5 -155.5t-45 -104.5t-57.5 -62.5t-55 -29.5l-234 76 q10 18 24.5 72.5t14.5 160.5v1049h-90z" />
<glyph unicode="l" horiz-adv-x="612" d="M23 1305v272h460v-1321q0 -111 11.5 -163t27.5 -70l-233 -76q-29 10 -59.5 32.5t-56.5 63.5t-43 103.5t-17 152.5v1006h-90z" />
<glyph unicode="m" horiz-adv-x="1896" d="M43 1085q27 16 61.5 28.5t81.5 12.5q78 0 129.5 -11t85.5 -38q66 35 149 54.5t175 19.5q63 0 132 -16.5t132 -57.5q63 35 149.5 54.5t176.5 19.5q94 0 161.5 -25.5t113.5 -66.5t74 -91t43 -99.5t20.5 -91.5t5.5 -66v-201v-84t2 -74t5 -56.5t9 -31.5q6 -10 18.5 -15 t24.5 -5q23 0 41 6l20 8l15 -231q-27 -16 -73 -28.5t-87 -12.5q-92 0 -154.5 9t-100.5 42t-54.5 96.5t-16.5 169.5v266q0 104 -5 163t-19.5 88.5t-37 37.5t-58.5 8q-23 -2 -49.5 -8t-43.5 -12l-41 -19v-827h-352v778q0 41 -31.5 64.5t-72.5 23.5q-23 0 -45.5 -6t-40.5 -14 l-41 -19v-827h-371v762q0 16 -1 35.5t-9 36t-23.5 27.5t-44.5 11q-20 0 -27.5 -3t-11.5 -3z" />
<glyph unicode="n" horiz-adv-x="1320" d="M33 1085q27 16 61.5 28.5t81.5 12.5q78 0 129 -11t86 -38q82 45 156 59.5t170 14.5q150 0 237.5 -55.5t134 -129t59.5 -146t13 -109.5v-129v-93.5t2 -95.5t5 -77.5t10 -41.5q6 -10 18 -15t25 -5q23 0 41 6l20 8l14 -231q-27 -16 -61.5 -28.5t-75.5 -12.5q-92 0 -158.5 9 t-108.5 42t-61.5 96.5t-19.5 169.5v201q0 113 -6 182.5t-23.5 106.5t-46 50t-73.5 13q-23 0 -45.5 -6t-41.5 -14l-40 -19v-827h-371v762q0 16 -1 35.5t-9.5 36t-23.5 27.5t-44 11q-20 0 -27.5 -3t-11.5 -3z" />
<glyph unicode="o" horiz-adv-x="1146" d="M63 416v264q0 158 51.5 251t128 141t167 62.5t170.5 14.5q76 0 167 -14.5t167.5 -62.5t129 -141t52.5 -251v-262q0 -152 -46 -239t-120 -130t-166 -54t-184 -11q-90 0 -182.5 10t-166 52t-121 129t-47.5 241zM432 489q0 -84 12.5 -131t33 -71.5t46 -30.5t54.5 -6 q31 0 58.5 6t48 29.5t32.5 72t12 131.5v142q0 82 -15.5 131t-38 74.5t-49 34t-46.5 8.5q-23 0 -48.5 -8.5t-47 -34t-37 -75.5t-15.5 -132v-140z" />
<glyph unicode="p" horiz-adv-x="1269" d="M45 1085q25 14 63.5 27.5t81.5 13.5q72 0 119 -9t94 -40q70 39 164.5 56.5t192.5 17.5q72 0 150.5 -17.5t144 -70.5t108.5 -150.5t43 -255.5v-208q0 -147 -42 -239.5t-106.5 -144t-142 -70t-149.5 -18.5q-37 0 -75 3.5t-68.5 7.5t-51 10t-24.5 10v-327l-371 -115v1200 q0 45 -13 75.5t-63 30.5q-10 0 -24.5 -3t-18.5 -3zM547 291q23 -10 57.5 -15.5t71.5 -5.5q43 0 73.5 9.5t51 39t31 87t10.5 153.5q0 98 -7.5 158.5t-23.5 94.5t-46 45t-73 11q-47 0 -84 -14t-61 -29v-534z" />
<glyph unicode="q" horiz-adv-x="1284" d="M72 449v208q0 158 43 255.5t108.5 150.5t144 70.5t150.5 17.5q104 0 197.5 -20.5t158.5 -53.5q47 31 94.5 40t118.5 9q25 -2 50.5 -6t48.5 -14l47 -21l-12 -219q-4 0 -18.5 3t-24.5 3q-49 0 -62.5 -30.5t-13.5 -75.5v-1085l-371 -115v442q-4 -4 -24.5 -10t-51 -10 t-68.5 -7.5t-75 -3.5q-72 0 -149.5 18.5t-142 70t-106.5 143.5t-42 240zM436 559q0 -96 10.5 -153.5t31 -87t51 -39t73.5 -9.5q37 0 72 5.5t57 15.5v534q-25 14 -61.5 28.5t-83.5 14.5q-45 0 -74 -11t-46 -45t-23.5 -94.5t-6.5 -158.5z" />
<glyph unicode="r" horiz-adv-x="815" d="M49 991q61 57 151.5 89t187.5 48.5t191.5 20.5t165.5 4v-303q-137 0 -193 -13.5t-60 -15.5v-821h-371v774q-20 -8 -33.5 -11t-28.5 -9z" />
<glyph unicode="s" horiz-adv-x="1183" d="M102 37l43 360h271v-57q0 -8 5 -17.5t22.5 -18.5t48 -15t83.5 -6q59 0 92 4t48.5 11t18.5 17.5t3 20.5t-9 21.5t-37.5 23.5t-85 28.5t-150.5 39.5q-172 41 -259 116.5t-87 218.5q0 117 37.5 190t105 113.5t160 55t200.5 14.5q98 0 203 -14.5t221 -36.5l-37 -330h-239 l-2 58q-10 10 -44 23t-98 13q-82 0 -116.5 -12t-34.5 -45q0 -25 60.5 -54.5t197.5 -60.5q70 -16 139.5 -34.5t124.5 -54.5t90 -96t35 -161q0 -193 -116.5 -284t-358.5 -91q-203 0 -331 21.5t-204 38.5z" />
<glyph unicode="t" horiz-adv-x="874" d="M59 858v270h103q18 0 35.5 15.5t30 53.5t20.5 100.5t8 154.5l317 18v-342h211v-270h-217v-493q0 -18 1 -39t7.5 -38.5t19.5 -28.5t38 -11q23 0 48.5 4t47.5 10l51 14l29 -249q-12 -4 -40 -12.5t-65.5 -16.5t-81.5 -14.5t-90 -6.5q-72 0 -132 19.5t-105 57.5t-70.5 94.5 t-25.5 130.5v579h-140z" />
<glyph unicode="u" horiz-adv-x="1290" d="M76 856v272h463v-780q0 -41 31.5 -63.5t72.5 -22.5q31 0 49.5 3t31.5 7t23.5 7.5t22.5 3.5v843h371v-759q0 -16 2 -38t9 -41.5t20.5 -32.5t35.5 -13q25 0 43 6l19 8l12 -231q-27 -16 -66.5 -28.5t-80.5 -12.5q-88 0 -142.5 11t-89.5 34l-8 -4q-78 -29 -142.5 -38.5 t-154.5 -9.5q-66 0 -141.5 14.5t-140 58.5t-107.5 124t-43 213v469h-90z" />
<glyph unicode="v" horiz-adv-x="1263" d="M43 856v272h391l197 -776l196 776h390v-272h-87l-262 -856h-477l-264 856h-84z" />
<glyph unicode="w" horiz-adv-x="1935" d="M51 856v272h391l197 -776l154 613l-50 163h359l196 -776l197 776h389v-272h-86l-262 -856h-444l-125 401l-123 -401h-445l-264 856h-84z" />
<glyph unicode="x" horiz-adv-x="1257" d="M45 0v272q49 0 82 17.5t80 72.5l172 199l-248 293h-86v272h330l243 -284l246 284h330v-272q-29 0 -62.5 -9t-76.5 -57l-195 -227l248 -289h86v-272h-336l-240 279l-237 -279h-336z" />
<glyph unicode="y" horiz-adv-x="1196" d="M41 856v272h463v-780q0 -41 31.5 -63.5t72.5 -22.5q72 0 127 21v843h371v-1032q0 -172 -50 -275.5t-124 -159.5t-157 -74.5t-148 -18.5q-147 0 -259 20.5t-204 67.5l80 254q51 -16 92 -25.5t78 -14.5t72.5 -7t76.5 -2q49 0 82 14t51.5 33.5t26.5 42t10 41.5 q-39 -8 -80 -10.5t-90 -2.5q-66 0 -141.5 14.5t-140 58.5t-107.5 124t-43 213v469h-90z" />
<glyph unicode="z" horiz-adv-x="1179" d="M121 0v274l497 580h-223q-23 -8 -29 -25.5t-6 -60.5h-239v360h979v-274l-496 -580h219q23 8 30 24.5t7 61.5h240v-360h-979z" />
<glyph unicode="{" horiz-adv-x="886" d="M51 573v279h234q6 240 35.5 409t81 285.5t120 193.5t152.5 134l190 -164q-41 -45 -74.5 -145.5t-58 -233.5t-39 -288.5t-14.5 -309.5v-24q0 -154 14.5 -311.5t39 -293t58 -238t74.5 -147.5l-190 -163q-82 55 -150.5 131.5t-120 193.5t-82 285t-36.5 407h-234z" />
<glyph unicode="|" horiz-adv-x="655" d="M154 -147v1746h370v-1746h-370z" />
<glyph unicode="}" horiz-adv-x="917" d="M29 -281q39 45 72.5 147.5t59 238t40 292t14.5 312.5v24q0 156 -14.5 310.5t-39 287.5t-59 232.5t-73.5 146.5l190 164q82 -57 150.5 -134t120 -193.5t82 -285.5t36.5 -409h234v-279h-234q-8 -240 -38.5 -407.5t-82 -284.5t-119 -192.5t-149.5 -132.5z" />
<glyph unicode="~" horiz-adv-x="1204" d="M123 528v236q45 45 80 75.5t66.5 49t65.5 27t79 8.5q86 0 219 -64q47 -23 87 -34t62 -11q18 0 53 6t76 18.5t80 31t64 42.5v-243q-53 -61 -91 -95t-71 -50.5t-63.5 -19.5t-67.5 -3q-29 0 -82 17.5t-109.5 39t-106.5 38.5t-73 17q-18 0 -53 -5t-75 -15t-78 -26.5 t-62 -39.5z" />
<glyph unicode="&#xa0;" />
<glyph unicode="&#xa2;" horiz-adv-x="1081" d="M90 444v261q2 106 28.5 181t68.5 124t96.5 75.5t111.5 38.5v140h371v-125h260l-33 -400h-227l-10 78q-6 10 -34 21.5t-91 11.5h-37q-23 0 -46.5 -7t-44 -31t-33.5 -71t-13 -127v-120q0 -86 14 -132.5t34.5 -68t45 -24.5t43.5 -3q113 0 200 11.5t173 35.5l73 -260 q-55 -31 -128.5 -46t-145.5 -21v-185h-371v191q-59 12 -114.5 39.5t-97.5 80t-67.5 133.5t-25.5 199z" />
<glyph unicode="&#xa3;" horiz-adv-x="1204" d="M45 0q2 4 7 20.5t11.5 36t12.5 38t8 26.5q8 29 14 73t6 111l5 754v45q0 86 27.5 146.5t73.5 99.5t105.5 62.5t122 33.5t125 13t113.5 3h8q70 0 130 -11t120 -30l217 -53l-90 -348l-234 61q10 41 11 52q0 18 -18.5 28t-46.5 16.5t-61.5 7.5t-62.5 1q-82 0 -123 -25.5 t-45 -107.5v-254h262v-258h-262v-269h660v-272h-838h-258z" />
<glyph unicode="&#xa5;" horiz-adv-x="1425" d="M27 1182v274h413l265 -450l292 450h396v-274h-174l-256 -420h176v-217h-232v-131h232v-217h-232v-197h-393v197h-244v217h244v131h-244v217h185l-246 420h-182z" />
<glyph unicode="&#xa8;" horiz-adv-x="1026" d="M98 1370q0 80 50.5 114t119.5 34q72 0 121 -31t49 -117q0 -84 -50 -116.5t-120 -32.5t-120 29.5t-50 119.5zM563 1370q0 80 50.5 114t121.5 34q70 0 120 -31t50 -117q0 -84 -50 -116.5t-120 -32.5q-72 0 -122 29.5t-50 119.5z" />
<glyph unicode="&#xa9;" horiz-adv-x="1470" d="M80 907q0 135 51 254t140 208t208 140.5t254 51.5t254 -51.5t208 -140.5t140 -208t51 -254t-51 -253.5t-140 -208t-208 -140.5t-254 -51t-254 51t-208 140.5t-140 208t-51 253.5zM256 899q0 -98 38 -186t102.5 -152.5t152.5 -102.5t186 -38t186.5 38t153 102.5t102 152.5 t37.5 186t-37.5 186.5t-102 153t-152.5 102t-187 37.5q-98 0 -186 -37.5t-152.5 -102t-102.5 -153t-38 -186.5zM449 827v156q2 92 30.5 144.5t70.5 78t91 32.5t92 7h33q45 0 192 -31l-12 -174h-106l-4 37q-29 37 -95 37q-59 0 -79.5 -43t-20.5 -141v-74q0 -102 22.5 -141 t88.5 -39q33 0 56 3t41.5 7t36 10t40.5 13l45 -107q-53 -23 -106.5 -40t-114.5 -17h-43q-43 0 -88.5 9t-83 38t-62 85t-24.5 150z" />
<glyph unicode="&#xab;" horiz-adv-x="1204" d="M51 428v320l541 397v-320l-279 -243l279 -265v-319zM584 428v320l540 397v-320l-278 -243l278 -265v-319z" />
<glyph unicode="&#xad;" horiz-adv-x="985" d="M156 444v279h688v-279h-688z" />
<glyph unicode="&#xae;" horiz-adv-x="1470" d="M80 907q0 135 51 254t140 208t208 140.5t254 51.5t254 -51.5t208 -140.5t140 -208t51 -254t-51 -253.5t-140 -208t-208 -140.5t-254 -51t-254 51t-208 140.5t-140 208t-51 253.5zM256 899q0 -98 38 -186t102.5 -152.5t152.5 -102.5t186 -38t186.5 38t153 102.5t102 152.5 t37.5 186t-37.5 186.5t-102 153t-152.5 102t-187 37.5q-98 0 -186 -37.5t-152.5 -102t-102.5 -153t-38 -186.5zM469 567v699h258q45 0 96 -6.5t94.5 -27t72 -57t28.5 -100.5v-78q0 -70 -40 -107.5t-97 -53.5l84 -109q20 -27 36.5 -40t26.5 -23l29 -11l-70 -96q-20 -4 -24 -4 q-23 0 -62 15.5t-84 74.5l-127 176h-43v-252h-178zM647 938h92q31 0 63 23.5t32 70.5t-26 75t-67 28h-94v-197z" />
<glyph unicode="&#xb4;" horiz-adv-x="636" d="M139 1200l121 258h344l-176 -258h-289z" />
<glyph unicode="&#xb8;" horiz-adv-x="524" d="M-49 -397l227 424h244l-137 -424h-334z" />
<glyph unicode="&#xbb;" horiz-adv-x="1185" d="M51 -2v319l279 265l-279 243v320l541 -397v-320zM584 -2v319l278 265l-278 243v320l540 -397v-320z" />
<glyph unicode="&#x2c6;" horiz-adv-x="940" d="M53 1219l299 319h232l303 -319h-283l-133 178l-135 -178h-283z" />
<glyph unicode="&#x2da;" horiz-adv-x="909" d="M195 1460q0 55 20.5 100.5t56 78t83.5 50t104 17.5q55 0 103 -17.5t85 -50t57.5 -77.5t20.5 -101q0 -55 -20.5 -100t-57.5 -77t-85 -49t-103 -17t-103.5 17t-84 49t-56 77t-20.5 100zM338 1460q0 -51 35 -75.5t86 -24.5t87 24.5t36 75.5t-36 77t-87 26t-86 -26t-35 -77z " />
<glyph unicode="&#x2dc;" horiz-adv-x="960" d="M121 1432q127 127 227 127q31 0 67 -14.5t72.5 -32t69.5 -32t55 -14.5q47 0 123 76l76 -182q-127 -129 -225 -129q-31 0 -69 14.5t-76 31.5t-70.5 31.5t-48.5 14.5q-49 0 -125 -74z" />
<glyph unicode="&#x401;" horiz-adv-x="1243" d="M78 1182v272h1052v-272h-567v-312h385v-278h-385v-320h567v-272h-958v272v910h-94zM217 1696q0 80 50.5 114t119.5 34q72 0 121 -31t49 -117q0 -84 -50 -116.5t-120 -32.5t-120 29.5t-50 119.5zM682 1696q0 80 50.5 114t121.5 34q70 0 120 -31t50 -117q0 -84 -50 -116.5 t-120 -32.5q-72 0 -122 29.5t-50 119.5z" />
<glyph unicode="&#x402;" horiz-adv-x="1513" d="M33 1094v360h1155v-360h-232v36q0 23 -7 34.5t-21 17.5h-127v-269q4 4 24.5 9.5t51 10.5t68.5 8t75 3q72 0 149.5 -18.5t142 -69.5t106.5 -143t42 -240q0 -154 -40 -251t-103.5 -151.5t-139 -74t-145.5 -21.5l-74 265q80 0 109 51t29 174q0 59 -14.5 96t-37 56.5 t-52 26.5t-62.5 7q-47 0 -76 -10t-57 -20v-621h-371v1182h-135q-27 -8 -27 -52v-36h-231z" />
<glyph unicode="&#x403;" horiz-adv-x="1122" d="M49 0v272h92v910h-92v272h1075v-360h-231v36q0 23 -7.5 34.5t-21.5 17.5h-330v-910h90v-272h-575zM491 1571l121 258h344l-176 -258h-289z" />
<glyph unicode="&#x404;" horiz-adv-x="1261" d="M94 582v331q0 129 29 221.5t76 155t110.5 99t132 56t139 25t134.5 5.5q23 0 59.5 -2.5t93 -8.5t134 -18t184.5 -35l-27 -375h-227l-10 78q-23 31 -67 56.5t-132 25.5q-59 0 -99 -20.5t-63.5 -61.5t-35 -103.5t-15.5 -148.5h360v-272h-362q2 -92 14.5 -155.5t40 -102.5 t71.5 -56.5t109 -17.5q70 0 118 5t89 14.5t79 22.5t87 30l94 -228q-55 -25 -120.5 -48t-136 -39.5t-141.5 -27t-138 -10.5q-90 0 -192.5 18.5t-188.5 82t-142.5 182.5t-56.5 322z" />
<glyph unicode="&#x405;" horiz-adv-x="1325" d="M147 49l43 357h256v-87q0 -8 19.5 -13t66.5 -5q37 0 81 5t82 17.5t63.5 35t25.5 57.5q0 49 -14 75.5t-44 45t-78 35t-116 44.5q-180 53 -280 167t-100 292q0 115 38.5 191.5t110.5 124t173 67t224 19.5q119 0 234 -12.5t231 -32.5l-57 -342l-229 14l-15 72 q-18 10 -43.5 12t-56.5 2q-41 0 -80 -5t-68.5 -17.5t-48 -35t-18.5 -57.5q0 -51 65.5 -96t206.5 -76q68 -14 138.5 -45t130 -85t97.5 -138t38 -205q0 -115 -54.5 -200t-139.5 -141t-190.5 -84t-205.5 -28q-174 0 -291 21.5t-195 50.5z" />
<glyph unicode="&#x406;" horiz-adv-x="706" d="M78 0v272h92v910h-92v272h575v-272h-90v-910h90v-272h-575z" />
<glyph unicode="&#x407;" horiz-adv-x="706" d="M-49 1696q0 80 50.5 114t119.5 34q72 0 121 -31t49 -117q0 -84 -50 -116.5t-120 -32.5t-120 29.5t-50 119.5zM78 0v272h92v910h-92v272h575v-272h-90v-910h90v-272h-575zM416 1696q0 80 50.5 114t121.5 34q70 0 120 -31t50 -117q0 -84 -50 -116.5t-120 -32.5 q-72 0 -122 29.5t-50 119.5z" />
<glyph unicode="&#x408;" horiz-adv-x="675" d="M80 1182v272h481v-1585q0 -92 -18.5 -155.5t-45 -104.5t-57 -62.5t-55.5 -29.5l-254 75q10 18 24.5 72.5t14.5 161.5v1356h-90z" />
<glyph unicode="&#x409;" horiz-adv-x="1970" d="M25 -6v280q16 0 20 2q35 0 65.5 8.5t52 42t34 103.5t12.5 195v557h-92v272h1233v-272h-90v-144q16 8 79.5 18.5t135.5 10.5t149.5 -18.5t142 -69.5t106.5 -143.5t42 -239.5v-127q0 -158 -43 -255t-108.5 -150.5t-144.5 -71t-151 -17.5q-150 0 -272 37l-22 6 q-25 -29 -47.5 -45t-47.5 -26l-254 76q10 18 24.5 72.5t14.5 160.5v926h-262v-629q0 -131 -23.5 -223t-64.5 -154.5t-95 -98.5t-114.5 -54.5t-125 -23.5t-124.5 -5h-30zM1260 297q23 -16 58.5 -27.5t82.5 -11.5q43 0 72.5 5t46 30.5t23.5 80t7 152.5q0 92 -9 143.5t-28.5 74 t-49 26.5t-68.5 4q-41 0 -74 -7t-61 -17v-453z" />
<glyph unicode="&#x40a;" horiz-adv-x="1943" d="M63 0v272h93v910h-93v272h486v-584h276l-2 312v272h486v-2l2 2v-272h-90v-144q16 8 79.5 18.5t135.5 10.5t149.5 -18.5t142 -69.5t106.5 -143.5t42 -239.5v-127q0 -158 -43 -255t-108.5 -150.5t-144.5 -71t-150 -17.5q-150 0 -273 37l-22 6q-25 -29 -47.5 -45t-47.5 -26 l-254 76q10 18 24.5 72.5t14.5 160.5v336h-276v-592h-486zM1221 297q23 -16 58.5 -27.5t82.5 -11.5q43 0 72.5 5t46 30.5t23.5 80t7 152.5q0 92 -9 143.5t-28.5 74t-49 26.5t-68.5 4q-41 0 -74 -7t-61 -17v-453z" />
<glyph unicode="&#x40b;" horiz-adv-x="1585" d="M31 1094v360h1155v-360h-232v36q0 23 -7 34.5t-21 17.5h-131v-299q41 10 85 14t97 4q150 0 238 -55t134 -129t59 -146.5t13 -109.5q0 -88 2 -129t15 -58q6 -10 18 -15t25 -5q23 0 41 6l20 8l14 -231q-27 -16 -78 -31.5t-92 -15.5q-78 0 -135 8t-97 38t-60.5 88t-22.5 161 q0 113 -6 179t-23.5 100t-46 43t-73.5 9q-23 0 -45.5 -6t-40.5 -14l-41 -18v-578h-371v1182h-135q-27 -8 -27 -52v-36h-231z" />
<glyph unicode="&#x40c;" horiz-adv-x="1488" d="M78 1182v272h483v-502l514 502h330v-272h-8q-25 -4 -65 -16.5t-83 -51.5l-16 -18l-375 -363l412 -371q80 -72 125 -99t69 -32l-102 -225l-27 -12q-35 -10 -71 -10q-53 -2 -123 25.5t-160 111.5l-383 360l-35 -35v-446h-393v1182h-92zM512 1528l121 258h344l-176 -258 h-289z" />
<glyph unicode="&#x40e;" horiz-adv-x="1368" d="M96 1184v272h389l193 -760l201 760h391v-264l-78 -8l-258 -733l-16 -56q-29 -92 -67 -165.5t-94.5 -126t-133 -80t-181.5 -27.5h-147v274h53q43 0 75 7.5t56.5 27t45 54t38.5 92.5h-119l-262 733h-86zM307 1868h231q0 -78 40 -106.5t106 -28.5t106.5 28.5t42.5 106.5h228 q-8 -86 -41 -150.5t-83.5 -105.5t-115 -61.5t-137.5 -20.5q-72 0 -136.5 20.5t-115.5 61.5t-84 105.5t-41 150.5z" />
<glyph unicode="&#x40f;" horiz-adv-x="1470" d="M61 1182v272h486v-1182h366v1182h484v-272h-90v-1182h-1153v1182h-93zM537 0h391v-272h-391v272z" />
<glyph unicode="&#x410;" horiz-adv-x="1447" d="M41 0v272h94l381 1182h428l369 -1182h94v-272h-395l-92 272h-396l-90 -272h-393zM610 555h234l-109 401z" />
<glyph unicode="&#x411;" horiz-adv-x="1380" d="M78 1182v272h1085v-360h-231v36q0 23 -7 34.5t-22 17.5h-340v-305h117q94 0 201.5 -6.5t197.5 -40t149.5 -104.5t59.5 -200v-202q0 -76 -30.5 -128.5t-82 -89t-118 -58t-137 -33t-141 -14.5t-130.5 -3h-479v1184h-92zM563 272h139q33 0 71 3.5t71 19.5t53.5 51t20.5 98 q0 25 -7.5 59t-29 63.5t-62.5 50t-108 20.5h-148v-365z" />
<glyph unicode="&#x412;" horiz-adv-x="1400" d="M78 1182v272h563q94 0 201.5 -6t197.5 -40t149.5 -104.5t59.5 -199.5v-125q0 -70 -34.5 -119t-92.5 -86q86 -45 136.5 -118.5t50.5 -184.5v-147q0 -109 -62.5 -172.5t-156 -97.5t-201 -44t-197.5 -10h-522v1182h-92zM563 272h139q33 0 71 3.5t71 19.5t53.5 51t20.5 98 q0 25 -7.5 59t-29 63.5t-62.5 50t-108 20.5h-148v-365zM563 889h113q33 0 65.5 4t59 19.5t44 44t17.5 77.5q0 94 -41 122t-127 28h-131v-295z" />
<glyph unicode="&#x413;" horiz-adv-x="1204" d="M78 0v272h92v910h-92v272h1075v-360h-231v36q0 23 -7.5 34.5t-21.5 17.5h-330v-910h90v-272h-575z" />
<glyph unicode="&#x414;" horiz-adv-x="1511" d="M78 0v272h41q35 0 73.5 8.5t72.5 40t55.5 97t21.5 182.5v582h-92v272h1173v-272h-90v-910h90v-272h-1345zM78 0h391v-272h-391v272zM686 272h254v910h-205v-629q0 -88 -13 -157.5t-36 -123.5zM1032 0h391v-272h-391v272z" />
<glyph unicode="&#x415;" horiz-adv-x="1243" d="M78 1182v272h1052v-272h-567v-312h385v-278h-385v-320h567v-272h-958v272v910h-94z" />
<glyph unicode="&#x416;" horiz-adv-x="2050" d="M63 1182v272h330l432 -422v422h392v-422l432 422h329v-272q-35 0 -75.5 -15.5t-79.5 -52.5l-391 -381l350 -391q80 -72 125 -99.5t69 -31.5l-102 -225l-27 -13q-16 -4 -32.5 -7t-38.5 -3q-53 0 -123 26.5t-160 110.5l-274 310v-410h-396v410l-274 -310 q-90 -84 -160 -110.5t-123 -26.5q-27 0 -41 3t-30 7l-27 13l-102 225q25 4 69.5 31.5t124.5 99.5l350 391l-391 381q-39 39 -83 53.5t-73 14.5z" />
<glyph unicode="&#x417;" horiz-adv-x="1273" d="M78 102l94 228q49 -16 88 -30.5t79 -25t88 -16.5t118 -6q37 0 80 5t80.5 24.5t63.5 58.5t26 104q0 25 -6.5 59t-28 63.5t-62.5 51t-110 21.5h-84l-60 250h131q31 2 60 8t52.5 21.5t37.5 43t14 72.5q0 94 -41 124t-127 30q-86 -2 -130 -9.5t-44 -45.5q0 -20 11 -52 l-234 -61l-90 348l223 59q55 16 125 26.5t135 10.5q80 0 177.5 -8t182.5 -43t142 -107.5t57 -201.5v-84q0 -68 -46 -121t-117 -96q98 -49 160.5 -129t62.5 -203v-86q0 -98 -50.5 -174t-136.5 -128t-202.5 -79t-249.5 -27q-129 0 -244 37t-225 88z" />
<glyph unicode="&#x418;" horiz-adv-x="1572" d="M78 1182v272h575v-272h-92v-602l486 874h485v-272h-92v-1182h-393v879l-488 -879h-391v1182h-90z" />
<glyph unicode="&#x419;" horiz-adv-x="1572" d="M78 1182v272h575v-272h-92v-602l486 874h485v-272h-92v-1182h-393v879l-488 -879h-391v1182h-90zM410 1866h231q0 -78 40 -106.5t106 -28.5t106.5 28.5t42.5 106.5h228q-8 -86 -41 -150.5t-83.5 -105.5t-115 -61.5t-137.5 -20.5q-72 0 -136.5 20.5t-115.5 61.5t-84 105.5 t-41 150.5z" />
<glyph unicode="&#x41a;" horiz-adv-x="1488" d="M78 1182v272h483v-502l514 502h330v-272h-8q-25 -4 -65 -16.5t-83 -51.5l-16 -18l-375 -363l412 -371q80 -72 125 -99t69 -32l-102 -225l-27 -12q-35 -10 -71 -10q-53 -2 -123 25.5t-160 111.5l-383 360l-35 -35v-446h-393v1182h-92z" />
<glyph unicode="&#x41b;" horiz-adv-x="1818" d="M78 -6v280h14q78 0 124 32t69.5 82t31 112.5t7.5 124.5v557h-93v272h1336v-272h-90v-910h90v-272h-484v1182h-366v-629q0 -131 -29 -223t-76 -154.5t-109.5 -98.5t-130 -54.5t-136 -23.5t-127.5 -5h-31z" />
<glyph unicode="&#x41c;" horiz-adv-x="1871" d="M80 1184v272h596l264 -899l293 899h582v-272h-91v-1184h-370v760l-244 -637h-334l-235 639v-762h-371v1184h-90z" />
<glyph unicode="&#x41d;" horiz-adv-x="1478" d="M78 0v272h92v910h-92v272h575v-272h-90v-312h367v312h-92v272h575v-272h-90v-910h90v-272h-575v272h92v320h-367v-320h90v-272h-575z" />
<glyph unicode="&#x41e;" horiz-adv-x="1368" d="M68 582v331q0 129 28.5 221.5t76.5 155t111.5 99t132 56t139.5 25t134 5.5t135 -5.5t140.5 -25t132 -56t110.5 -99t76 -155t29 -221.5v-331q0 -197 -52.5 -316t-138.5 -183.5t-198.5 -85t-233.5 -20.5t-233.5 21.5t-198.5 86.5t-138 183.5t-52 313.5zM475 643 q0 -104 9.5 -178t33 -120t65.5 -66.5t107 -20.5q63 0 105.5 20.5t67 66.5t33.5 120t9 178v156q0 98 -9 173t-32.5 124t-65.5 74.5t-108 25.5t-107.5 -25.5t-65 -74.5t-33 -124t-9.5 -173v-156z" />
<glyph unicode="&#x41f;" horiz-adv-x="1505" d="M78 1182v272h1335v-272h-90v-1182h-393v1182h-367v-1182h-393v1182h-92z" />
<glyph unicode="&#x420;" horiz-adv-x="1347" d="M78 1182v272h608q94 0 201.5 -12t198 -54t149.5 -119t59 -206v-125q0 -115 -57 -187.5t-144 -113.5t-189.5 -55.5t-192.5 -14.5h-148v-567h-393v1182h-92zM563 817h150q33 0 67.5 9.5t62 31t46 55t18.5 82.5q0 94 -51 140.5t-137 46.5h-156v-365z" />
<glyph unicode="&#x421;" horiz-adv-x="1275" d="M94 582v331q0 127 28 218.5t75 154t108.5 100t130 57t137 26t132.5 6.5q135 0 263 -17.5t218 -46.5l-27 -375h-227l-10 78q-23 31 -67 56.5t-132 25.5q-66 0 -108 -24.5t-65.5 -73.5t-32.5 -124t-9 -175v-156q0 -109 10 -182.5t37 -118.5t72 -64.5t116 -19.5q70 0 118 5 t89 14.5t79 22.5t87 30l94 -228q-111 -51 -225.5 -88t-243.5 -37q-123 0 -239.5 18.5t-207.5 82t-145.5 182.5t-54.5 322z" />
<glyph unicode="&#x422;" horiz-adv-x="1386" d="M61 1094v360h1278v-360h-231v36q0 23 -7 34.5t-22 17.5h-192v-910h90v-272h-555v272h92v910h-195q-27 -8 -26 -52v-36h-232z" />
<glyph unicode="&#x423;" horiz-adv-x="1368" d="M96 1184v272h389l193 -760l201 760h391v-264l-78 -8l-258 -733l-16 -56q-29 -92 -67 -165.5t-94.5 -126t-133 -80t-181.5 -27.5h-147v274h53q43 0 75 7.5t56.5 27t45 54t38.5 92.5h-119l-262 733h-86z" />
<glyph unicode="&#x424;" horiz-adv-x="1480" d="M82 653v142q0 143 41 234t107.5 143.5t150.5 73t170 22.5v186h371v-186q86 -2 170 -21.5t151.5 -72t108.5 -144.5t41 -235v-142q0 -147 -44 -237t-114 -140.5t-153 -69t-160 -20.5v-186h-371v186q-78 2 -161 21.5t-151.5 70t-112.5 140.5t-44 235zM410 705 q0 -80 14 -129.5t34.5 -76t45 -35.5t47.5 -9v546q-29 0 -53.5 -13t-45 -46t-31.5 -86t-11 -135v-16zM922 455q20 0 45.5 9t47 35.5t36 76t14.5 129.5v16q0 82 -12.5 136t-33 86t-46 45t-51.5 13v-546z" />
<glyph unicode="&#x425;" horiz-adv-x="1421" d="M76 2v272q29 0 46 2.5t28.5 7.5t21.5 13t23 22l303 406l-336 457h-86v272h330l315 -426l317 426h330v-272q-47 0 -71.5 -7.5t-45.5 -35.5l-305 -414l336 -451h86v-272h-336l-311 420l-309 -420h-336z" />
<glyph unicode="&#x426;" horiz-adv-x="1554" d="M78 0v272h92v910h-92v272h485v-1182h367v1182h483v-272h-90v-910h90v-544h-391v272h-944z" />
<glyph unicode="&#x427;" horiz-adv-x="1333" d="M55 1182v272h463v-500q0 -49 18.5 -83.5t46 -55t62.5 -30t68 -9.5h149v678h393v-1454h-393v526h-147q-90 0 -190.5 14.5t-184.5 55.5t-139.5 113.5t-55.5 187.5v285h-90z" />
<glyph unicode="&#x428;" horiz-adv-x="2086" d="M76 0v272h92v910h-92v272h485v-1182h285v1182h393v-1182h285v1182h483v-272h-90v-910h90v-272h-1931z" />
<glyph unicode="&#x429;" horiz-adv-x="2082" d="M76 0v272h92v910h-92v272h485v-1182h285v1182h393v-1182h285v1182h483v-272h-90v-910h90v-544h-391v272h-1540z" />
<glyph unicode="&#x42a;" horiz-adv-x="1587" d="M39 1094v360h868v-272h-116v-305h116q94 0 202 -6.5t198 -40t149.5 -104.5t59.5 -200v-202q0 -76 -31 -128.5t-82 -89t-117.5 -58t-137.5 -33t-141.5 -14.5t-129.5 -3h-480v1184h-98q-14 -6 -21.5 -17.5t-7.5 -34.5v-36h-231zM791 272h116q49 0 104.5 9.5t90.5 60.5 q18 31 22 94v8q-4 109 -37 134q-37 27 -172 26h-124v-332z" />
<glyph unicode="&#x42b;" horiz-adv-x="1871" d="M39 1182v272h485v-577h117q94 0 201.5 -6.5t197.5 -40t149.5 -104.5t59.5 -200v-202q0 -76 -30.5 -128.5t-82 -89t-118 -58t-137 -33t-141 -14.5t-130.5 -3h-479v1184h-92zM524 272h117q49 0 104.5 9.5t90.5 60.5q18 31 22 94v8q-4 109 -37 134q-37 27 -172 26h-125v-332 zM1372 299v1155h391v-1198q0 -106 14.5 -160.5t24.5 -72.5l-254 -76q-25 8 -55.5 29.5t-57 62.5t-45 104.5t-18.5 155.5z" />
<glyph unicode="&#x42c;" horiz-adv-x="1316" d="M39 1182v272h485v-577h117q94 0 201.5 -6.5t197.5 -40t149.5 -104.5t59.5 -200v-202q0 -76 -30.5 -128.5t-82 -89t-118 -58t-137 -33t-141 -14.5t-130.5 -3h-479v1184h-92zM524 272h117q49 0 104.5 9.5t90.5 60.5q18 31 22 94v8q-4 109 -37 134q-37 27 -172 26h-125v-332 z" />
<glyph unicode="&#x42d;" horiz-adv-x="1308" d="M94 102l94 228q49 -16 87 -29.5t79 -23t89.5 -14.5t117.5 -5q66 0 110 17.5t71.5 56.5t40 102.5t14.5 155.5h-363v272h361q-4 86 -15.5 148.5t-35 103.5t-63.5 61.5t-99 20.5q-88 0 -132 -25.5t-67 -56.5l-10 -78h-228l-26 375q106 23 184 35t134.5 18t93 8.5t59.5 2.5 q63 0 134 -5.5t139.5 -25t132 -56t110.5 -99t75.5 -155t28.5 -221.5v-331q0 -203 -56 -322t-142 -182.5t-188.5 -82t-192.5 -18.5q-68 0 -138.5 10.5t-141 27t-136 40t-121.5 47.5z" />
<glyph unicode="&#x42e;" horiz-adv-x="2045" d="M150 0v1454h370v-588h225v47q0 129 29 221.5t77 155t111.5 99t132 56t139.5 25t134 5.5t135 -5.5t140.5 -25t132 -56t110.5 -99t76 -155t29 -221.5v-331q0 -197 -52.5 -316t-138.5 -183.5t-198.5 -85t-233.5 -20.5t-233.5 20.5t-198.5 85t-138.5 183.5t-52.5 314l-225 8 v-588h-370zM1153 643q0 -104 9 -178t33 -120t66 -66.5t107 -20.5q63 0 105.5 20.5t67 66.5t33.5 120t9 178v156q0 98 -9 173t-32.5 124t-65.5 74.5t-108 25.5t-107.5 -25.5t-65.5 -74.5t-33 -124t-9 -173v-156z" />
<glyph unicode="&#x42f;" horiz-adv-x="1413" d="M53 182q29 8 77 38t114 116l174 227q-59 18 -110.5 46t-91.5 68t-62.5 94t-22.5 126v166q0 129 59.5 206t149.5 119t196.5 54t202.5 12h629v-272h-92v-1182h-373v528h-86l-268 -368q-45 -59 -88 -96t-82 -57.5t-72 -27t-57 -6.5q-33 0 -55 9zM518 973q0 -49 18.5 -86 t46 -61.5t62.5 -37t68 -12.5h190v406h-196q-86 0 -137.5 -57.5t-51.5 -151.5z" />
<glyph unicode="&#x430;" horiz-adv-x="1200" d="M51 383q0 113 47 183.5t119 109.5t159 52t165 13q70 0 123 -6q0 33 -5.5 57.5t-20.5 39t-45 21.5t-79 7q-51 0 -108.5 -6t-104.5 -14l-113 -19l-71 242q59 31 180 65.5t321 34.5q98 0 167 -27.5t114 -70.5t69.5 -95t37 -103.5t15.5 -94.5t3 -67v-130v-93t2 -95t5 -78 t9 -41q6 -10 18.5 -15t24.5 -5q23 0 41 6l21 8l14 -231q-27 -16 -61.5 -28.5t-75.5 -12.5q-86 0 -134 10t-81 31q-43 -14 -80 -24.5t-74 -16.5t-80 -9.5t-98 -3.5q-66 0 -140.5 14.5t-137 57.5t-104.5 123t-42 211zM408 379q0 -35 14 -57.5t36.5 -36t50.5 -18.5t54 -5 q29 0 58.5 6t52.5 6v234q-23 2 -47.5 5t-51.5 3q-29 0 -58.5 -5t-54 -20.5t-39.5 -42t-15 -69.5z" />
<glyph unicode="&#x431;" horiz-adv-x="1380" d="M94 553v356q0 152 38 258.5t112.5 173t188.5 97t265 30.5h248q78 0 118 10.5t54 18.5l56 -186q-6 -18 -21.5 -40t-46.5 -40.5t-77 -30.5t-114 -12l-241 2q-72 0 -111 -43t-57.5 -100.5t-22.5 -112.5t-4 -80q37 18 98.5 39.5t127.5 21.5q117 0 224 -13t191 -59t134.5 -133 t50.5 -235q0 -135 -46.5 -229t-127 -154.5t-190.5 -88.5t-236 -28q-154 0 -268.5 31t-190.5 98.5t-114 178t-38 270.5zM481 545q0 -76 9.5 -129.5t34 -88t67.5 -51t108 -16.5q35 0 73 12.5t71 38t53.5 66.5t20.5 98q0 55 -17.5 91t-47.5 57.5t-71 31t-86 9.5 q-53 0 -110.5 -12.5t-104.5 -22.5v-84z" />
<glyph unicode="&#x432;" horiz-adv-x="1245" d="M51 817v316h582q78 0 165 -4.5t160.5 -30t121.5 -80.5t48 -156v-98q0 -53 -27.5 -92t-74.5 -68q70 -35 111 -92t41 -143v-117q0 -84 -51.5 -134t-127 -77t-163.5 -34t-162 -7h-533v817h-90zM510 213h115q27 0 57.5 2t56 15.5t43 40t17.5 75.5q0 20 -5.5 46t-23.5 49.5 t-51 40t-88 16.5h-121v-285zM510 694h92q27 0 53.5 3t48 14.5t36 34t14.5 61.5q0 74 -33 95.5t-105 21.5h-106v-230z" />
<glyph unicode="&#x433;" horiz-adv-x="1185" d="M63 854v272h1018v-360h-231v37q0 23 -7 34t-22 17h-272v-854h-393v854h-93z" />
<glyph unicode="&#x434;" horiz-adv-x="1470" d="M78 -272v544h20q37 0 76 8.5t73 43t55.5 104.5t21.5 195v231h-93v272h1172v-272h-90v-582h90v-544h-391v272h-543v-272h-391zM627 272h293v582h-203v-338q0 -29 -6 -63.5t-17.5 -70.5t-28 -65.5t-38.5 -44.5z" />
<glyph unicode="&#x435;" horiz-adv-x="1144" d="M61 444v261q0 156 58.5 243.5t144.5 130.5t182.5 53.5t171.5 10.5q74 0 156 -11.5t152.5 -58.5t117 -141t46.5 -258l-25 -4h25q0 -57 -10.5 -105.5t-49.5 -113.5h-618q8 -61 37.5 -98.5t65.5 -57t71 -26.5t53 -9q113 0 193.5 6t152.5 10l88 -223q-45 -25 -99 -40 t-109.5 -22t-107.5 -10.5t-93 -3.5q-49 0 -114 5.5t-131.5 23t-131 49t-114.5 83.5t-81 127t-31 179zM408 670h305q18 6 23 20.5t5 48.5q-10 86 -47.5 120t-103.5 34q-35 0 -66.5 -8t-56.5 -32t-40 -68t-19 -115z" />
<glyph unicode="&#x436;" horiz-adv-x="1742" d="M25 238q23 4 68.5 27.5t131.5 94.5l183 203l-195 244q-33 29 -56.5 38t-41.5 11h-27v272h330l266 -354v354h371v-356l268 356h330v-272h-27q-18 -2 -41.5 -11t-56.5 -38l-195 -244l183 -203q86 -72 132 -95t68 -27l-94 -228q-47 -25 -106 -24q-51 0 -122 33.5t-157 109.5 l-182 193v-322h-371v319l-180 -190q-86 -76 -157 -109.5t-122 -33.5q-61 0 -106 24z" />
<glyph unicode="&#x437;" horiz-adv-x="1228" d="M72 74l94 237q49 -12 84 -23.5t71.5 -18.5t82 -12t114.5 -5q37 0 77 4t73.5 15.5t56.5 31t23 47.5q0 16 -3.5 31.5t-20.5 28t-55 20.5t-108 8h-84l-59 256h143q70 0 108 8.5t55 21.5t20.5 31.5t3.5 39.5q0 33 -23 51t-56.5 27.5t-73.5 10.5t-77 1q-70 0 -115 -5.5 t-81.5 -12.5t-71.5 -18t-84 -24l-94 238q111 41 215 69.5t233 28.5q133 0 250 -18.5t203 -60.5t136 -109.5t50 -165.5q0 -74 -38 -131.5t-103 -97.5q66 -41 103.5 -97.5t37.5 -130.5q0 -98 -50 -168.5t-136 -117t-203 -68t-250 -21.5q-129 0 -233.5 29t-214.5 70z" />
<glyph unicode="&#x438;" horiz-adv-x="1452" d="M61 0v1126h394v-602l333 602h594v-272h-92v-854h-393v823l-444 -823h-392z" />
<glyph unicode="&#x439;" horiz-adv-x="1452" d="M61 0v1126h394v-602l333 602h594v-272h-92v-854h-393v823l-444 -823h-392zM348 1540h231q0 -78 40 -106.5t106 -28.5t106.5 28.5t42.5 106.5h228q-8 -86 -41 -150.5t-83.5 -105.5t-115 -61.5t-137.5 -20.5q-72 0 -136.5 20.5t-115.5 61.5t-84 105.5t-41 150.5z" />
<glyph unicode="&#x43a;" horiz-adv-x="1376" d="M63 852v272h461v-434l377 438h330v-272h-27q-18 -2 -41.5 -11t-56.5 -38l-195 -244l265 -223q86 -72 132 -95.5t68 -27.5l-94 -227q-47 -25 -106 -25q-51 0 -122 23.5t-157 99.5l-373 330v-119q0 -92 -18.5 -155.5t-45 -104.5t-57 -62.5t-55.5 -29.5l-233 76 q10 18 24.5 72.5t14.5 160.5v596h-91z" />
<glyph unicode="&#x43b;" horiz-adv-x="1540" d="M78 -8v282h20q35 0 75 8.5t74 42t55.5 103.5t21.5 195v231h-93v272h1192v-272h-90v-582h90v-272h-483v854h-223v-399q0 -156 -63.5 -247t-157 -139.5t-198.5 -62.5t-189 -14h-31z" />
<glyph unicode="&#x43c;" horiz-adv-x="1699" d="M68 856v272h583l205 -505l205 505h584v-272h-91v-856h-370v700l-129 -372h-400l-127 362v-690h-370v856h-90z" />
<glyph unicode="&#x43d;" horiz-adv-x="1460" d="M78 0v272h92v582h-92v272h485v-419h311v419h488v-272h-90v-582h90v-272h-488v428h-311v-428h-485z" />
<glyph unicode="&#x43e;" horiz-adv-x="1146" d="M63 434v271q0 104 25 177.5t65 122t93 76t110.5 42t114.5 17.5t109 3q49 0 107 -6.5t115.5 -23.5t111 -49t93.5 -84t64.5 -127t24.5 -179v-256q-4 -154 -51.5 -242t-120 -132t-163.5 -55.5t-181 -11.5q-92 0 -184.5 8.5t-166 52.5t-120 136t-46.5 260zM430 489 q0 -88 12.5 -137t33 -73.5t48 -29.5t58.5 -5q27 0 53.5 9t45.5 34.5t31.5 73t12.5 122.5v140q0 82 -14.5 131t-37 75.5t-48 34.5t-45.5 8q-23 0 -48.5 -6t-48 -30.5t-38 -72.5t-15.5 -132v-142z" />
<glyph unicode="&#x43f;" horiz-adv-x="1406" d="M55 854v274h1295v-274h-90v-854h-394v854h-325v-854h-394v854h-92z" />
<glyph unicode="&#x440;" horiz-adv-x="1269" d="M84 1085q25 14 63.5 27.5t81.5 13.5q72 0 119 -9t94 -40q70 39 164 56.5t193 17.5q72 0 150.5 -17.5t144 -70.5t108.5 -150.5t43 -255.5v-208q0 -147 -42 -239.5t-106.5 -144t-142 -70t-149.5 -18.5q-37 0 -75 3.5t-68.5 7.5t-51 10t-24.5 10v-327l-371 -115v1200 q0 45 -13.5 75.5t-62.5 30.5q-10 0 -24.5 -3t-18.5 -3zM586 291q23 -10 57.5 -15.5t71.5 -5.5q43 0 73.5 9.5t51 39t31 87t10.5 153.5q0 98 -7.5 158.5t-23.5 94.5t-46 45t-73 11q-47 0 -84 -14t-61 -29v-534z" />
<glyph unicode="&#x441;" horiz-adv-x="1052" d="M49 432v264q0 150 50.5 239t125 136t162.5 61.5t164 14.5q104 0 167.5 -3t107.5 -9.5t79 -12.5t80 -12l-33 -367h-227l-10 78q-14 23 -63.5 29t-98.5 6q-23 0 -46.5 -7t-44 -31.5t-33.5 -72t-13 -127.5v-120q0 -84 14 -130t35.5 -67.5t46.5 -26t43 -4.5q113 0 199 11.5 t172 35.5l73 -260q-45 -25 -104 -40t-120.5 -22t-120 -10t-99.5 -3q-86 0 -176 11t-164 57t-120 135t-46 247z" />
<glyph unicode="&#x442;" horiz-adv-x="1243" d="M61 766v360h1115v-360h-232v37q0 23 -7 34t-22 17h-110v-582h90v-272h-555v272h92v582h-113q-27 -8 -26 -51v-37h-232z" />
<glyph unicode="&#x443;" horiz-adv-x="1345" d="M96 733v273h389l193 -760l201 760h391v-265l-78 -8l-258 -733l-16 -55q-29 -92 -67 -166t-94.5 -126t-133 -80t-181.5 -28h-147v275h53q43 0 75 7t56.5 26.5t45 54.5t38.5 92h-119l-262 733h-86z" />
<glyph unicode="&#x444;" horiz-adv-x="1480" d="M70 449v239q0 143 41 234.5t107.5 143.5t150.5 72.5t170 22.5v418h370v-418q86 -2 170 -21.5t151.5 -71.5t108.5 -144.5t41 -235.5v-239q0 -147 -44 -237.5t-113.5 -141t-152.5 -68.5t-161 -20v-416h-370v416q-78 2 -161 21.5t-151.5 69.5t-112.5 140t-44 236zM397 500 q0 -80 14.5 -129t35 -76t45 -36t47.5 -9v645q-29 0 -53.5 -13.5t-45 -46t-32 -86t-11.5 -135.5v-114zM909 250q20 0 46 9t47.5 36t36 76t14.5 129v114q0 82 -12.5 136.5t-33 86t-46 45t-52.5 13.5v-645z" />
<glyph unicode="&#x445;" horiz-adv-x="1257" d="M45 0v272q49 0 82 17.5t80 72.5l172 199l-248 293h-86v272h330l243 -284l246 284h330v-272q-29 0 -62.5 -9t-76.5 -57l-195 -227l248 -289h86v-272h-336l-240 279l-237 -279h-336z" />
<glyph unicode="&#x446;" horiz-adv-x="1554" d="M78 0v272h92v854h393v-854h367v852h393v-852h90v-272h-1335zM1022 0h391v-272h-391v272z" />
<glyph unicode="&#x447;" horiz-adv-x="1269" d="M76 852v272h463v-473q0 -57 31.5 -81.5t72.5 -24.5t74 9t84 32v536h370v-1122h-370v283q-35 -10 -74 -16.5t-88 -6.5q-66 0 -147.5 14.5t-154.5 58.5t-122 124t-49 213v182h-90z" />
<glyph unicode="&#x448;" horiz-adv-x="2086" d="M76 0v272h92v910h393v-910h285v910h393v-910h285v910h393v-1182h-1841z" />
<glyph unicode="&#x449;" horiz-adv-x="2082" d="M76 0v272h92v910h393v-910h285v910h393v-910h285v910h393v-910h90v-544h-391v272h-1540z" />
<glyph unicode="&#x44a;" horiz-adv-x="1527" d="M53 768v360h752v-256q4 4 24.5 9.5t51 10.5t68.5 8t75 3q72 0 149.5 -18.5t142 -69.5t106.5 -143t42 -240q0 -160 -43 -251t-108.5 -137t-144 -57.5t-150.5 -11.5q-150 0 -273 37l-22 6l-6 -8q-39 -45 -88 -63l-234 76q10 18 24.5 72.5t14.5 160.5v600h-121 q-14 -6 -21 -17.5t-7 -33.5v-37h-232zM801 582l4 -271q23 -16 60.5 -29.5t84.5 -13.5q43 0 73 16.5t46 41t23.5 52.5t7.5 50q0 35 -8.5 68.5t-26.5 59.5t-48 42t-73 16q-47 0 -77.5 -8t-65.5 -24z" />
<glyph unicode="&#x44b;" horiz-adv-x="1785" d="M94 23q10 18 24.5 72.5t14.5 160.5v872h371v-256q4 4 24.5 9.5t51 10.5t68.5 8t75 3q72 0 149.5 -18.5t142 -69.5t106.5 -143t42 -240q0 -160 -43 -251t-108.5 -137t-144.5 -57.5t-150 -11.5q-150 0 -273 37l-22 6l-6 -8q-39 -45 -88 -63zM500 582l4 -271 q23 -16 60.5 -29.5t84.5 -13.5q43 0 73 16.5t46 41t23.5 52.5t7.5 50q0 35 -8.5 68.5t-27 59.5t-48 42t-72.5 16q-47 0 -77.5 -8t-65.5 -24zM1284 299v829h391v-872q0 -106 14.5 -160.5t24.5 -72.5l-254 -76q-25 8 -55.5 29.5t-57 62.5t-45 104.5t-18.5 155.5z" />
<glyph unicode="&#x44c;" horiz-adv-x="1241" d="M94 23q10 18 24.5 72.5t14.5 160.5v872h371v-256q4 4 24.5 9.5t51 10.5t68.5 8t75 3q72 0 149.5 -18.5t142 -69.5t106.5 -143t42 -240q0 -160 -43 -251t-108.5 -137t-144.5 -57.5t-150 -11.5q-150 0 -273 37l-22 6l-6 -8q-39 -45 -88 -63zM500 582l4 -271 q23 -16 60.5 -29.5t84.5 -13.5q43 0 73 16.5t46 41t23.5 52.5t7.5 50q0 35 -8.5 68.5t-27 59.5t-48 42t-72.5 16q-47 0 -77.5 -8t-65.5 -24z" />
<glyph unicode="&#x44d;" horiz-adv-x="1124" d="M61 53l89 223q72 -4 152.5 -10t193.5 -6q18 2 53 9t70.5 26.5t65.5 56.5t38 99h-373l-41 227h414q-8 61 -38 98t-65.5 56.5t-70.5 26.5t-53 9q-55 0 -97.5 -2t-77 -5t-66.5 -7t-69 -6l-88 223q92 49 191.5 64.5t181.5 15.5q49 0 113.5 -5t131 -22.5t131 -49.5t115 -84 t81 -127t30.5 -179v-240q0 -104 -30.5 -179t-81 -127t-115 -83.5t-131 -49t-131 -23t-113.5 -5.5q-41 0 -93 3.5t-107.5 10.5t-110 22.5t-99.5 39.5z" />
<glyph unicode="&#x44e;" horiz-adv-x="1746" d="M84 856v272h461v-446h119q0 156 51 249t128 141t167 62.5t170 14.5q76 0 167 -14.5t167.5 -62.5t129 -141t52.5 -251v-262q0 -152 -46 -239t-120 -130t-166 -54t-184 -11q-90 0 -181.5 9t-165 51t-120.5 126t-49 233h-119v-403h-371v856h-90zM1032 489q0 -84 12.5 -131 t33 -71.5t46 -30.5t54.5 -6q31 0 58.5 6t48 29.5t32.5 72t12 131.5v142q0 82 -15.5 131t-38 74.5t-49 34t-46.5 8.5q-23 0 -48.5 -8.5t-47 -34t-37 -75.5t-15.5 -132v-140z" />
<glyph unicode="&#x44f;" horiz-adv-x="1251" d="M51 193q23 4 64 28.5t114 89.5l172 181q-51 14 -89 29.5t-66 31.5q-70 37 -111 96.5t-41 149.5v121q0 88 51.5 140t127 78.5t163.5 35t162 8.5h582v-328h-97v-854h-362v373l-229 -281q-82 -78 -145.5 -101.5t-113.5 -23.5q-23 0 -36 2t-27 6l-25 13zM473 821q0 -20 5 -48 t23.5 -52.5t51.5 -40.5t88 -16h80v297h-74q-27 0 -57.5 -2.5t-56 -15.5t-43 -42t-17.5 -80z" />
<glyph unicode="&#x451;" horiz-adv-x="1144" d="M61 444v261q0 156 58.5 243.5t144.5 130.5t182.5 53.5t171.5 10.5q74 0 156 -11.5t152.5 -58.5t117 -141t46.5 -258l-25 -4h25q0 -57 -10.5 -105.5t-49.5 -113.5h-618q8 -61 37.5 -98.5t65.5 -57t71 -26.5t53 -9q113 0 193.5 6t152.5 10l88 -223q-45 -25 -99 -40 t-109.5 -22t-107.5 -10.5t-93 -3.5q-49 0 -114 5.5t-131.5 23t-131 49t-114.5 83.5t-81 127t-31 179zM168 1370q0 80 50.5 114t119.5 34q72 0 121 -31t49 -117q0 -84 -50 -116.5t-120 -32.5t-120 29.5t-50 119.5zM408 670h305q18 6 23 20.5t5 48.5q-10 86 -47.5 120 t-103.5 34q-35 0 -66.5 -8t-56.5 -32t-40 -68t-19 -115zM633 1370q0 80 50.5 114t121.5 34q70 0 120 -31t50 -117q0 -84 -50 -116.5t-120 -32.5q-72 0 -122 29.5t-50 119.5z" />
<glyph unicode="&#x452;" horiz-adv-x="1300" d="M37 1020v272h151v162h367v-162h158v-272h-154v-209q4 4 24.5 9t51.5 10.5t68.5 8.5t74.5 3q72 0 150 -18.5t142.5 -70t106.5 -143.5t42 -239v-127q0 -154 -40 -249t-103.5 -149.5t-139.5 -74t-145 -21.5l-74 264q39 0 65.5 9.5t43 39t22.5 86t6 152.5q0 88 -14.5 138 t-37 75t-52 30t-62.5 5q-47 0 -75.5 -10.5t-57.5 -20.5v-518h-367v1020h-151z" />
<glyph unicode="&#x453;" horiz-adv-x="1134" d="M63 854v272h1018v-360h-231v37q0 23 -7 34t-22 17h-272v-854h-393v854h-93zM334 1200l121 258h344l-176 -258h-289z" />
<glyph unicode="&#x454;" horiz-adv-x="1138" d="M61 444v240q0 104 31 179t81 127t114.5 84t131 49.5t131 22.5t114.5 5q82 0 181 -15.5t191 -64.5l-88 -223q-37 2 -68.5 6t-66.5 7t-77 5t-97 2q-18 -2 -53 -9t-71 -26.5t-65.5 -56.5t-37.5 -98h413l-41 -227h-372q8 -61 37.5 -98.5t65.5 -57t71 -26.5t53 -9 q113 0 193.5 6t152.5 10l88 -223q-45 -25 -99 -40t-109.5 -22t-107.5 -10.5t-93 -3.5q-49 0 -114 5.5t-131.5 23t-131 49t-114.5 83.5t-81 127t-31 179z" />
<glyph unicode="&#x455;" horiz-adv-x="1183" d="M102 37l43 360h271v-57q0 -8 5 -17.5t22.5 -18.5t48 -15t83.5 -6q59 0 92 4t48.5 11t18.5 17.5t3 20.5t-9 21.5t-37.5 23.5t-85 28.5t-150.5 39.5q-172 41 -259 116.5t-87 218.5q0 117 37.5 190t105 113.5t160 55t200.5 14.5q98 0 203 -14.5t221 -36.5l-37 -330h-239 l-2 58q-10 10 -44 23t-98 13q-82 0 -116.5 -12t-34.5 -45q0 -25 60.5 -54.5t197.5 -60.5q70 -16 139.5 -34.5t124.5 -54.5t90 -96t35 -161q0 -193 -116.5 -284t-358.5 -91q-203 0 -331 21.5t-204 38.5z" />
<glyph unicode="&#x456;" horiz-adv-x="643" d="M63 856v272h461v-1128h-370v856h-91zM80 1403q0 100 64.5 142t156.5 42q45 0 86 -8t70.5 -29.5t47 -57.5t17.5 -89t-17.5 -89t-47 -57.5t-70.5 -30.5t-86 -9q-47 0 -87 8t-69.5 28.5t-47 57.5t-17.5 92z" />
<glyph unicode="&#x457;" horiz-adv-x="643" d="M-82 1370q0 80 50.5 114t119.5 34q72 0 121 -31t49 -117q0 -84 -50 -116.5t-120 -32.5t-120 29.5t-50 119.5zM84 856v272h461v-1128h-371v856h-90zM383 1370q0 80 50.5 114t121.5 34q70 0 120 -31t50 -117q0 -84 -50 -116.5t-120 -32.5q-72 0 -122 29.5t-50 119.5z" />
<glyph unicode="&#x458;" horiz-adv-x="614" d="M70 856v272h460v-1278q0 -92 -18 -155.5t-45 -104.5t-57.5 -62.5t-55.5 -29.5l-233 76q10 18 24.5 72.5t14.5 160.5v1049h-90zM86 1403q0 100 64.5 142t156.5 42q45 0 86 -8t71 -29.5t47 -57.5t17 -89t-17 -89t-47 -57.5t-71 -30.5t-86 -9q-47 0 -87 8t-69.5 28.5 t-47 57.5t-17.5 92z" />
<glyph unicode="&#x459;" horiz-adv-x="2052" d="M78 -8v282q80 0 128 31t73.5 79t35 110.5t9.5 128.5v231h-93v272l1104 2v-256q4 4 24.5 9.5t51.5 10.5t69 8t74 3q72 0 150 -18.5t142.5 -69.5t106.5 -143t42 -240q0 -160 -43 -251t-108.5 -137t-144.5 -57.5t-151 -11.5q-150 0 -272 37l-23 6l-6 -8q-39 -45 -88 -63 l-233 76q10 18 24.5 72.5t14.5 160.5v598h-248v-399q0 -143 -63.5 -233.5t-157 -141.5t-198.5 -69.5t-189 -18.5h-31zM1333 582l2 -271q23 -16 61 -29.5t85 -13.5q43 0 72.5 16.5t46 41t23.5 52.5t7 50q0 35 -8 68.5t-26.5 59.5t-48 42t-72.5 16q-47 0 -78 -8t-64 -24z" />
<glyph unicode="&#x45a;" horiz-adv-x="1910" d="M61 856v272h486v-426h276v-278h-276v-424h-393v856h-93zM784 23q10 18 24.5 72.5t14.5 160.5v872h371v-256q4 4 24.5 9.5t51 10.5t68.5 8t75 3q72 0 149.5 -18.5t142 -69.5t106.5 -143t42 -240q0 -160 -43 -251t-108.5 -137t-144 -57.5t-150.5 -11.5q-150 0 -272 37 l-23 6l-6 -8q-39 -45 -88 -63zM1190 582l4 -271q23 -16 60.5 -29.5t84.5 -13.5q43 0 73 16.5t46.5 41t23.5 52.5t7 50q0 35 -8 68.5t-26.5 59.5t-48.5 42t-73 16q-47 0 -77.5 -8t-65.5 -24z" />
<glyph unicode="&#x45b;" horiz-adv-x="1333" d="M18 1014v278h150v162h371v-162h155v-278h-155v-131q41 10 85 14t97 4q150 0 238 -55t134 -129t59 -146.5t13 -109.5q0 -88 2 -129t15 -58q6 -10 18 -15t25 -5q23 0 41 6l20 8l14 -231q-27 -16 -78 -31.5t-92 -15.5q-78 0 -135 8t-97 38t-60.5 88t-22.5 161q0 113 -6 179 t-23.5 100t-46 43t-73.5 9q-23 0 -45.5 -6t-40.5 -14l-41 -18v-578h-371v1014h-150z" />
<glyph unicode="&#x45c;" horiz-adv-x="1368" d="M63 852v272h461v-434l377 438h330v-272h-27q-18 -2 -41.5 -11t-56.5 -38l-195 -244l265 -223q86 -72 132 -95.5t68 -27.5l-94 -227q-47 -25 -106 -25q-51 0 -122 23.5t-157 99.5l-373 330v-119q0 -92 -18.5 -155.5t-45 -104.5t-57 -62.5t-55.5 -29.5l-233 76 q10 18 24.5 72.5t14.5 160.5v596h-91zM389 1200l121 258h344l-176 -258h-289z" />
<glyph unicode="&#x45e;" horiz-adv-x="1296" d="M55 733v273h389l193 -760l201 760h391v-265l-78 -8l-258 -733l-16 -55q-29 -92 -67 -166t-94.5 -126t-133 -80t-181.5 -28h-147v275h53q43 0 75 7t56.5 26.5t45 54.5t38.5 92h-119l-262 733h-86zM156 1540h231q0 -78 40 -106.5t106 -28.5t106.5 28.5t42.5 106.5h228 q-8 -86 -41 -150.5t-83.5 -105.5t-115 -61.5t-137.5 -20.5q-72 0 -136.5 20.5t-115.5 61.5t-84 105.5t-41 150.5z" />
<glyph unicode="&#x45f;" horiz-adv-x="1400" d="M133 0v1182h393v-910h367v910h393v-1182h-1153zM516 0h391v-272h-391v272z" />
<glyph unicode="&#x462;" horiz-adv-x="1484" d="M14 1217v360h1155v-360h-231v36q0 23 -7 34t-22 18h-131v-308q16 8 80 18.5t135 10.5q72 0 150 -18.5t142.5 -69.5t106.5 -143.5t42 -239.5v-86q0 -158 -43 -255t-108.5 -150.5t-144.5 -71t-151 -17.5q-150 0 -272 37l-23 6l-6 -8q-39 -45 -88 -63l-233 76q10 18 24 72.5 t14 160.5v1049h-131q-27 -8 -26 -52v-36h-232zM770 682l4 -381q23 -16 60.5 -29.5t85.5 -13.5q43 0 72.5 5t46 29.5t23.5 74t7 139.5q0 76 -10 121t-30.5 68.5t-51.5 30.5t-74 7t-70.5 -8t-54.5 -18v-25h-8z" />
<glyph unicode="&#x463;" horiz-adv-x="1251" d="M25 1014v278h137v164h370v-164h160v-278h-160v-142q4 4 25 9.5t51.5 10.5t68.5 8t75 3q72 0 149.5 -18.5t142 -69.5t106.5 -143t42 -240q0 -160 -43 -251t-108.5 -137t-144.5 -57.5t-151 -11.5q-150 0 -272 37l-22 6l-7 -8q-39 -45 -88 -63l-233 76q10 18 24.5 72.5 t14.5 160.5v758h-137zM528 582l4 -271q23 -16 61 -29.5t85 -13.5q43 0 72.5 16.5t46 41t23.5 52.5t7 50q0 35 -8 68.5t-26.5 59.5t-48 42t-72.5 16q-47 0 -78 -8t-66 -24z" />
<glyph unicode="&#x472;" horiz-adv-x="1169" d="M63 434v608q0 104 25 178t65 122.5t93 76t110.5 42t114.5 17.5t109 3q49 0 107 -6.5t115.5 -23.5t111 -49t93.5 -84t64.5 -127t24.5 -179v-594q-4 -154 -51.5 -242t-120 -132t-163.5 -55.5t-181 -11.5q-92 0 -184.5 8.5t-166 52.5t-120 136t-46.5 260zM430 489 q0 -88 12.5 -137t33 -73.5t48 -29.5t58.5 -5q27 0 53.5 9t45.5 34.5t31.5 73t12.5 122.5v88l-295 41v-123zM430 891l295 -41v111q0 82 -14.5 131t-37 75.5t-48 34.5t-45.5 8q-23 0 -48.5 -6t-48 -30.5t-38 -72.5t-15.5 -132v-78z" />
<glyph unicode="&#x473;" horiz-adv-x="1173" d="M63 434v271q0 104 25 177.5t65 122t93 76t110.5 42t114.5 17.5t109 3q49 0 107 -6.5t115.5 -23.5t111 -49t93.5 -84t64.5 -127t24.5 -179v-256q-4 -154 -51.5 -242t-120 -132t-163.5 -55.5t-181 -11.5q-92 0 -184.5 8.5t-166 52.5t-120 136t-46.5 260zM430 451 q2 -74 15.5 -116t34 -62.5t47 -24.5t55.5 -4q23 0 45 6t40.5 23.5t33 48t20.5 79.5zM438 729l285 -49q-6 63 -21.5 101t-36 58.5t-44 26.5t-41.5 6t-39 -4t-41.5 -18t-37 -43t-24.5 -78z" />
<glyph unicode="&#x474;" horiz-adv-x="1482" d="M47 1182v272h414l264 -958l190 630q39 129 102.5 200t134.5 102.5t141.5 38t123.5 6.5v-273q-49 0 -78.5 -19.5t-46.5 -68.5l-356 -1112h-416l-366 1182h-107z" />
<glyph unicode="&#x475;" horiz-adv-x="1288" d="M55 856v272h414l176 -632l90 297q39 129 102.5 199.5t134 102t141.5 38t124 6.5v-273q-49 0 -79 -19.5t-46 -68.5l-256 -778h-416l-278 856h-107z" />
<glyph unicode="&#x490;" horiz-adv-x="1193" d="M78 0v272h92v910h-92v272h753v272h310v-544h-578v-910h90v-272h-575z" />
<glyph unicode="&#x491;" horiz-adv-x="1208" d="M78 0v272h92v584h-92v272h1063v-272h-578v-584h90v-272h-575zM831 1128v273h310v-273h-310z" />
<glyph unicode="&#x4d9;" horiz-adv-x="1179" d="M61 446l25 5h-25q0 57 10.5 105t49.5 114h618q-8 61 -37.5 98t-65.5 56.5t-71 26.5t-53 9q-113 0 -193.5 -6t-152.5 -10l-88 223q45 25 99 40t109.5 22.5t107.5 10.5t93 3q49 0 114 -5t131.5 -22.5t131 -49.5t114.5 -84t81 -127t31 -179v-260q0 -156 -58.5 -244 t-144.5 -131t-182.5 -53.5t-172.5 -10.5q-74 0 -155.5 11.5t-152 58.5t-117 141.5t-46.5 257.5zM410 381q10 -86 47.5 -120t103.5 -34q35 0 66.5 8.5t56.5 32t40 67.5t19 116h-305q-18 -6 -23 -20.5t-5 -49.5z" />
<glyph unicode="&#x2000;" horiz-adv-x="937" />
<glyph unicode="&#x2001;" horiz-adv-x="1874" />
<glyph unicode="&#x2002;" horiz-adv-x="937" />
<glyph unicode="&#x2003;" horiz-adv-x="1874" />
<glyph unicode="&#x2004;" horiz-adv-x="624" />
<glyph unicode="&#x2005;" horiz-adv-x="468" />
<glyph unicode="&#x2006;" horiz-adv-x="312" />
<glyph unicode="&#x2007;" horiz-adv-x="312" />
<glyph unicode="&#x2008;" horiz-adv-x="234" />
<glyph unicode="&#x2009;" horiz-adv-x="374" />
<glyph unicode="&#x200a;" horiz-adv-x="104" />
<glyph unicode="&#x2010;" horiz-adv-x="985" d="M156 444v279h688v-279h-688z" />
<glyph unicode="&#x2011;" horiz-adv-x="985" d="M156 444v279h688v-279h-688z" />
<glyph unicode="&#x2012;" horiz-adv-x="985" d="M156 444v279h688v-279h-688z" />
<glyph unicode="&#x2013;" horiz-adv-x="1234" d="M174 387v279h889v-279h-889z" />
<glyph unicode="&#x2014;" horiz-adv-x="1611" d="M174 387v279h1264v-279h-1264z" />
<glyph unicode="&#x2018;" horiz-adv-x="620" d="M141 1061v110q0 70 26 124.5t64.5 95.5t83.5 68.5t84 43.5l70 -121q-25 -33 -45.5 -62.5t-30.5 -72.5q43 -16 69.5 -60t26.5 -130q0 -111 -51 -157t-123 -46q-33 0 -64.5 10t-56 35t-39 65t-14.5 97z" />
<glyph unicode="&#x2019;" horiz-adv-x="667" d="M162 1300q0 111 51 157t123 46q33 0 64.5 -10t56 -34.5t39 -64.5t14.5 -98v-110q0 -70 -25.5 -124t-64.5 -95t-84 -69t-84 -44l-70 121q25 33 45.5 62.5t30.5 72.5q-43 16 -69.5 60t-26.5 130z" />
<glyph unicode="&#x201a;" horiz-adv-x="632" d="M156 182q0 111 51 157t123 46q33 0 64.5 -10t56 -35t39 -64.5t14.5 -97.5v-110q0 -70 -25.5 -124.5t-64.5 -95.5t-84 -68.5t-84 -43.5l-70 121q25 33 45.5 62.5t30.5 72.5q-43 16 -69.5 60t-26.5 130z" />
<glyph unicode="&#x201c;" horiz-adv-x="1054" d="M162 1061v110q0 70 25.5 124.5t64.5 95.5t84 68.5t84 43.5l69 -121q-25 -33 -45 -62.5t-30 -72.5q43 -16 69.5 -60t26.5 -130q0 -111 -51 -157t-123 -46q-33 0 -64.5 10t-56.5 35t-39 65t-14 97zM571 1061v110q0 70 26 124.5t64.5 95.5t84 68.5t83.5 43.5l70 -121 q-25 -33 -45 -62.5t-31 -72.5q43 -16 70 -60t27 -130q0 -111 -51.5 -157t-123.5 -46q-33 0 -64.5 10t-56 35t-39 65t-14.5 97z" />
<glyph unicode="&#x201d;" horiz-adv-x="1007" d="M162 1300q0 111 51 157t123 46q33 0 64.5 -10t56 -34.5t39 -64.5t14.5 -98v-110q0 -70 -25.5 -124t-64.5 -95t-84 -69t-84 -44l-70 121q25 33 45.5 62.5t30.5 72.5q-43 16 -69.5 60t-26.5 130zM571 1300q0 111 51.5 157t122.5 46q33 0 65 -10t56.5 -34.5t39 -64.5 t14.5 -98v-110q0 -70 -26 -124t-64.5 -95t-84 -69t-83.5 -44l-70 121q25 33 45 62.5t31 72.5q-43 16 -70 60t-27 130z" />
<glyph unicode="&#x201e;" horiz-adv-x="1079" d="M166 182q0 111 51 157t123 46q33 0 64.5 -10t56 -35t39 -64.5t14.5 -97.5v-110q0 -70 -25.5 -124.5t-64.5 -95.5t-84 -68.5t-84 -43.5l-70 121q25 33 45.5 62.5t30.5 72.5q-43 16 -69.5 60t-26.5 130zM575 182q0 111 51.5 157t123.5 46q33 0 64.5 -10t56 -35t39 -64.5 t14.5 -97.5v-110q0 -70 -26 -124.5t-64.5 -95.5t-83.5 -68.5t-84 -43.5l-70 121q25 33 45.5 62.5t30.5 72.5q-43 16 -70 60t-27 130z" />
<glyph unicode="&#x2022;" horiz-adv-x="675" d="M92 526q0 55 19.5 94t53.5 63t78 35t95 11t95 -9t78 -32.5t53.5 -62.5t19.5 -99q0 -59 -19.5 -98t-53.5 -62.5t-78 -33.5t-95 -10t-95 9t-78 31.5t-53.5 62.5t-19.5 101z" />
<glyph unicode="&#x2026;" horiz-adv-x="1619" d="M133 156q0 94 57.5 134t143.5 40q41 0 78 -8.5t64.5 -29t43 -53t15.5 -83.5q0 -98 -58.5 -137t-142.5 -39q-41 0 -78 8t-64.5 27.5t-43 53.5t-15.5 87zM618 156q0 94 58.5 134t144.5 40q41 0 78 -8.5t64.5 -29t43 -53t15.5 -83.5q0 -98 -58.5 -137t-142.5 -39 q-41 0 -77.5 8t-64.5 27.5t-44.5 53.5t-16.5 87zM1106 156q0 94 58.5 134t144.5 40q41 0 77.5 -8.5t64.5 -29t43 -53t15 -83.5q0 -98 -58 -137t-142 -39q-86 0 -144.5 36t-58.5 140z" />
<glyph unicode="&#x202f;" horiz-adv-x="374" />
<glyph unicode="&#x2039;" horiz-adv-x="772" d="M117 428v320l540 397v-320l-278 -243l278 -265v-319z" />
<glyph unicode="&#x203a;" horiz-adv-x="776" d="M117 -2v319l278 265l-278 243v320l540 -397v-320z" />
<glyph unicode="&#x205f;" horiz-adv-x="468" />
<glyph unicode="&#x20ac;" horiz-adv-x="1406" d="M51 442v217h146v132h-146v217h152q20 162 84.5 255t150.5 140t183.5 59.5t185.5 12.5h72q94 0 199.5 -18.5t197.5 -84.5l-78 -233q-49 14 -76.5 25.5t-60.5 18.5t-85 10t-151 3q-92 0 -137 -45t-61 -143h293v-217h-310v-132h310v-217h-297q18 -104 68 -144t155 -40 q70 0 118 5t89 14.5t78.5 22.5t87.5 30l94 -228q-111 -51 -225.5 -88t-243.5 -37h-94q-84 0 -172.5 14.5t-165 63.5t-133 141.5t-74.5 245.5h-154z" />
<glyph unicode="&#x2122;" horiz-adv-x="1880" d="M61 1249v205h730v-205h-132v21q0 23 -16 28h-111v-518h52v-155h-316v155h51v518h-110q-14 -6 -14 -28v-21h-134zM825 1300v154h338l150 -393l164 393h329v-154h-51v-669h-209v545l-137 -361h-190l-134 363v-547h-208v669h-52z" />
<glyph unicode="&#x25fc;" horiz-adv-x="1126" d="M0 0v1126h1126v-1126h-1126z" />
</font>
</defs>
</svg>
